<svg xmlns="http://www.w3.org/2000/svg" fill="none" viewBox="43.3 25 1800 476.3"><path d="M193.301 371.4L193.301 458.003L118.301 414.701L193.301 371.4Z" fill="#11BBF0"></path><path d="M793.301 25L793.301 111.603L718.301 68.3013L793.301 25Z" fill="#12A0F2"></path><path d="M118.301 328.1L193.301 371.401L118.301 414.703L118.301 328.1Z" fill="#6FBBD9"></path><path d="M43.3013 371.4L118.301 414.701L43.3013 458.003L43.3013 371.4Z" fill="#105CC1"></path><path d="M118.301 328.1L118.301 414.703L43.3013 371.401L118.301 328.1Z" fill="#11BBF0"></path><path d="M118.301 414.7L193.301 458.001L118.301 501.303L118.301 414.7Z" fill="#12A0F2"></path><path d="M118.301 414.7L118.301 501.303L43.3013 458.001L118.301 414.7Z" fill="#0F80C1"></path><path d="M268.301 328.1L268.301 414.703L193.301 371.401L268.301 328.1Z" fill="#11BBF0"></path><path d="M268.301 414.7L343.301 458.001L268.301 501.303L268.301 414.7Z" fill="#24C790"></path><path d="M268.301 414.7L268.301 501.303L193.301 458.001L268.301 414.7Z" fill="#5EEA3D"></path><path d="M418.301 241.5L493.301 284.801L418.301 328.103L418.301 241.5Z" fill="#12A0F2"></path><path d="M343.301 284.8L418.301 328.101L343.301 371.403L343.301 284.8Z" fill="#5EEA3D"></path><path d="M493.301 371.4L493.301 458.003L418.301 414.701L493.301 371.4Z" fill="#12A0F2"></path><path d="M418.301 328.1L493.301 371.401L418.301 414.703L418.301 328.1Z" fill="#6FBBD9"></path><path d="M343.301 371.4L418.301 414.701L343.301 458.003L343.301 371.4Z" fill="#105CC1"></path><path d="M418.301 328.1L418.301 414.703L343.301 371.401L418.301 328.1Z" fill="#11BBF0"></path><path d="M418.301 414.7L493.301 458.001L418.301 501.303L418.301 414.7Z" fill="#11BBF0"></path><path d="M418.301 414.7L418.301 501.303L343.301 458.001L418.301 414.7Z" fill="#0F80C1"></path><path d="M643.301 284.8L643.301 371.403L568.301 328.101L643.301 284.8Z" fill="#E7FA57"></path><path d="M568.301 241.5L643.301 284.801L568.301 328.103L568.301 241.5Z" fill="#6FBBD9"></path><path d="M493.301 284.8L568.301 328.101L493.301 371.403L493.301 284.8Z" fill="#33ABA3"></path><path d="M568.301 241.5L568.301 328.103L493.301 284.801L568.301 241.5Z" fill="#5EEA3D"></path><path d="M643.301 371.4L643.301 458.003L568.301 414.701L643.301 371.4Z" fill="#24C790"></path><path d="M568.301 328.1L643.301 371.401L568.301 414.703L568.301 328.1Z" fill="#5EEA3D"></path><path d="M493.301 371.4L568.301 414.701L493.301 458.003L493.301 371.4Z" fill="#24C790"></path><path d="M568.301 328.1L568.301 414.703L493.301 371.401L568.301 328.1Z" fill="#6FBBD9"></path><path d="M568.301 414.7L643.301 458.001L568.301 501.303L568.301 414.7Z" fill="#33ABA3"></path><path d="M568.301 414.7L568.301 501.303L493.301 458.001L568.301 414.7Z" fill="#E7FA57"></path><path d="M793.301 198.2L793.301 284.803L718.301 241.501L793.301 198.2Z" fill="#11BBF0"></path><path d="M718.301 154.9L793.301 198.201L718.301 241.503L718.301 154.9Z" fill="#6FBBD9"></path><path d="M643.301 198.2L718.301 241.501L643.301 284.803L643.301 198.2Z" fill="#105CC1"></path><path d="M718.301 154.9L718.301 241.503L643.301 198.201L718.301 154.9Z" fill="#12A0F2"></path><path d="M793.301 284.8L793.301 371.403L718.301 328.101L793.301 284.8Z" fill="#6FBBD9"></path><path d="M718.301 241.5L793.301 284.801L718.301 328.103L718.301 241.5Z" fill="#12A0F2"></path><path d="M643.301 284.8L718.301 328.101L643.301 371.402L643.301 284.8Z" fill="#6FBBD9"></path><path d="M718.301 241.5L718.301 328.103L643.301 284.801L718.301 241.5Z" fill="#0F80C1"></path><path d="M793.301 371.4L793.301 458.003L718.301 414.701L793.301 371.4Z" fill="#0F80C1"></path><path d="M718.301 328.1L793.301 371.401L718.301 414.703L718.301 328.1Z" fill="#105CC1"></path><path d="M643.301 371.4L718.301 414.701L643.301 458.003L643.301 371.4Z" fill="#11BBF0"></path><path d="M718.301 328.1L718.301 414.703L643.301 371.401L718.301 328.1Z" fill="#12A0F2"></path><path d="M718.301 414.7L793.301 458.001L718.301 501.303L718.301 414.7Z" fill="#6FBBD9"></path><path d="M718.301 414.7L718.301 501.303L643.301 458.001L718.301 414.7Z" fill="#12A0F2"></path><path d="M943.301 111.6L943.301 198.203L868.301 154.901L943.301 111.6Z" fill="#E7FA57"></path><path d="M868.301 68.3L943.301 111.601L868.301 154.903L868.301 68.3Z" fill="#33ABA3"></path><path d="M793.301 111.6L868.301 154.901L793.301 198.203L793.301 111.6Z" fill="#088A89"></path><path d="M868.301 68.3L868.301 154.903L793.301 111.601L868.301 68.3Z" fill="#5EEA3D"></path><path d="M943.301 198.2L943.301 284.803L868.301 241.501L943.301 198.2Z" fill="#24C790"></path><path d="M868.301 154.9L943.301 198.201L868.301 241.503L868.301 154.9Z" fill="#5EEA3D"></path><path d="M793.301 198.2L868.301 241.501L793.301 284.802L793.301 198.2Z" fill="#24C790"></path><path d="M868.301 154.9L868.301 241.503L793.301 198.201L868.301 154.9Z" fill="#33ABA3"></path><path d="M943.301 284.8L943.301 371.403L868.301 328.101L943.301 284.8Z" fill="#24C790"></path><path d="M868.301 241.5L943.301 284.801L868.301 328.103L868.301 241.5Z" fill="#088A89"></path><path d="M793.301 284.8L868.301 328.101L793.301 371.403L793.301 284.8Z" fill="#5EEA3D"></path><path d="M868.301 241.5L868.301 328.103L793.301 284.801L868.301 241.5Z" fill="#E7FA57"></path><path d="M943.301 371.4L943.301 458.003L868.301 414.701L943.301 371.4Z" fill="#5EEA3D"></path><path d="M868.301 328.1L943.301 371.401L868.301 414.703L868.301 328.1Z" fill="#33ABA3"></path><path d="M793.301 371.4L868.301 414.701L793.301 458.003L793.301 371.4Z" fill="#33ABA3"></path><path d="M868.301 328.1L868.301 414.703L793.301 371.401L868.301 328.1Z" fill="#24C790"></path><path d="M868.301 414.7L943.301 458.001L868.301 501.303L868.301 414.7Z" fill="#E7FA57"></path><path d="M868.301 414.7L868.301 501.303L793.301 458.001L868.301 414.7Z" fill="#088A89"></path><path d="M1093.3 111.6L1093.3 198.203L1018.3 154.901L1093.3 111.6Z" fill="#E7FA57"></path><path d="M1093.3 198.2L1093.3 284.803L1018.3 241.501L1093.3 198.2Z" fill="#12A0F2"></path><path d="M1018.3 154.9L1093.3 198.201L1018.3 241.502L1018.3 154.9Z" fill="#6FBBD9"></path><path d="M943.301 198.2L1018.3 241.501L943.301 284.802L943.301 198.2Z" fill="#0F80C1"></path><path d="M1018.3 154.9L1018.3 241.502L943.301 198.201L1018.3 154.9Z" fill="#11BBF0"></path><path d="M1093.3 284.8L1093.3 371.403L1018.3 328.101L1093.3 284.8Z" fill="#6FBBD9"></path><path d="M1018.3 241.5L1093.3 284.801L1018.3 328.103L1018.3 241.5Z" fill="#11BBF0"></path><path d="M943.301 284.8L1018.3 328.101L943.301 371.402L943.301 284.8Z" fill="#6FBBD9"></path><path d="M1018.3 241.5L1018.3 328.103L943.301 284.801L1018.3 241.5Z" fill="#105CC1"></path><path d="M1093.3 371.4L1093.3 458.003L1018.3 414.701L1093.3 371.4Z" fill="#105CC1"></path><path d="M1018.3 328.1L1093.3 371.401L1018.3 414.702L1018.3 328.1Z" fill="#0F80C1"></path><path d="M943.301 371.4L1018.3 414.701L943.301 458.002L943.301 371.4Z" fill="#11BBF0"></path><path d="M1018.3 328.1L1018.3 414.702L943.301 371.401L1018.3 328.1Z" fill="#12A0F2"></path><path d="M1018.3 414.7L1093.3 458.001L1018.3 501.303L1018.3 414.7Z" fill="#12A0F2"></path><path d="M1018.3 414.7L1018.3 501.303L943.301 458.001L1018.3 414.7Z" fill="#6FBBD9"></path><path d="M1243.3 284.8L1243.3 371.403L1168.3 328.101L1243.3 284.8Z" fill="#E7FA57"></path><path d="M1168.3 241.5L1243.3 284.801L1168.3 328.103L1168.3 241.5Z" fill="#088A89"></path><path d="M1093.3 284.8L1168.3 328.101L1093.3 371.403L1093.3 284.8Z" fill="#33ABA3"></path><path d="M1168.3 241.5L1168.3 328.103L1093.3 284.801L1168.3 241.5Z" fill="#5EEA3D"></path><path d="M1243.3 371.4L1243.3 458.003L1168.3 414.701L1243.3 371.4Z" fill="#24C790"></path><path d="M1168.3 328.1L1243.3 371.401L1168.3 414.703L1168.3 328.1Z" fill="#5EEA3D"></path><path d="M1093.3 371.4L1168.3 414.701L1093.3 458.003L1093.3 371.4Z" fill="#088A89"></path><path d="M1168.3 328.1L1168.3 414.703L1093.3 371.401L1168.3 328.1Z" fill="#24C790"></path><path d="M1168.3 414.7L1243.3 458.001L1168.3 501.303L1168.3 414.7Z" fill="#33ABA3"></path><path d="M1168.3 414.7L1168.3 501.303L1093.3 458.001L1168.3 414.7Z" fill="#E7FA57"></path><path d="M1393.3 284.8L1393.3 371.403L1318.3 328.101L1393.3 284.8Z" fill="#0F80C1"></path><path d="M1318.3 241.5L1393.3 284.801L1318.3 328.103L1318.3 241.5Z" fill="#11BBF0"></path><path d="M1243.3 284.8L1318.3 328.101L1243.3 371.403L1243.3 284.8Z" fill="#11BBF0"></path><path d="M1318.3 241.5L1318.3 328.103L1243.3 284.801L1318.3 241.5Z" fill="#E7FA57"></path><path d="M1393.3 371.4L1393.3 458.003L1318.3 414.701L1393.3 371.4Z" fill="#11BBF0"></path><path d="M1318.3 328.1L1393.3 371.401L1318.3 414.703L1318.3 328.1Z" fill="#6FBBD9"></path><path d="M1243.3 371.4L1318.3 414.701L1243.3 458.003L1243.3 371.4Z" fill="#105CC1"></path><path d="M1318.3 328.1L1318.3 414.703L1243.3 371.401L1318.3 328.1Z" fill="#12A0F2"></path><path d="M1318.3 414.7L1393.3 458.001L1318.3 501.303L1318.3 414.7Z" fill="#12A0F2"></path><path d="M1318.3 414.7L1318.3 501.303L1243.3 458.001L1318.3 414.7Z" fill="#0F80C1"></path><path d="M1543.3 198.2L1543.3 284.803L1468.3 241.501L1543.3 198.2Z" fill="#11BBF0"></path><path d="M1468.3 154.9L1543.3 198.201L1468.3 241.503L1468.3 154.9Z" fill="#105CC1"></path><path d="M1393.3 198.2L1468.3 241.501L1393.3 284.803L1393.3 198.2Z" fill="#11BBF0"></path><path d="M1468.3 154.9L1468.3 241.503L1393.3 198.201L1468.3 154.9Z" fill="#12A0F2"></path><path d="M1543.3 284.8L1543.3 371.403L1468.3 328.101L1543.3 284.8Z" fill="#E7FA57"></path><path d="M1468.3 241.5L1543.3 284.801L1468.3 328.103L1468.3 241.5Z" fill="#24C790"></path><path d="M1393.3 284.8L1468.3 328.101L1393.3 371.402L1393.3 284.8Z" fill="#33ABA3"></path><path d="M1468.3 241.5L1468.3 328.103L1393.3 284.801L1468.3 241.5Z" fill="#5EEA3D"></path><path d="M1543.3 371.4L1543.3 458.003L1468.3 414.701L1543.3 371.4Z" fill="#088A89"></path><path d="M1468.3 328.1L1543.3 371.401L1468.3 414.703L1468.3 328.1Z" fill="#5EEA3D"></path><path d="M1393.3 371.4L1468.3 414.701L1393.3 458.003L1393.3 371.4Z" fill="#088A89"></path><path d="M1468.3 328.1L1468.3 414.703L1393.3 371.401L1468.3 328.1Z" fill="#24C790"></path><path d="M1468.3 414.7L1543.3 458.001L1468.3 501.303L1468.3 414.7Z" fill="#33ABA3"></path><path d="M1468.3 414.7L1468.3 501.303L1393.3 458.001L1468.3 414.7Z" fill="#E7FA57"></path><path d="M1618.3 68.3L1693.3 111.601L1618.3 154.903L1618.3 68.3Z" fill="#12A0F2"></path><path d="M1543.3 111.6L1618.3 154.901L1543.3 198.203L1543.3 111.6Z" fill="#E7FA57"></path><path d="M1693.3 198.2L1693.3 284.803L1618.3 241.501L1693.3 198.2Z" fill="#11BBF0"></path><path d="M1618.3 154.9L1693.3 198.201L1618.3 241.503L1618.3 154.9Z" fill="#6FBBD9"></path><path d="M1543.3 198.2L1618.3 241.501L1543.3 284.803L1543.3 198.2Z" fill="#105CC1"></path><path d="M1618.3 154.9L1618.3 241.503L1543.3 198.201L1618.3 154.9Z" fill="#11BBF0"></path><path d="M1693.3 284.8L1693.3 371.403L1618.3 328.101L1693.3 284.8Z" fill="#6FBBD9"></path><path d="M1618.3 241.5L1693.3 284.801L1618.3 328.103L1618.3 241.5Z" fill="#0F80C1"></path><path d="M1543.3 284.8L1618.3 328.101L1543.3 371.403L1543.3 284.8Z" fill="#6FBBD9"></path><path d="M1618.3 241.5L1618.3 328.103L1543.3 284.801L1618.3 241.5Z" fill="#12A0F2"></path><path d="M1693.3 371.4L1693.3 458.003L1618.3 414.701L1693.3 371.4Z" fill="#0F80C1"></path><path d="M1618.3 328.1L1693.3 371.401L1618.3 414.703L1618.3 328.1Z" fill="#105CC1"></path><path d="M1543.3 371.4L1618.3 414.701L1543.3 458.003L1543.3 371.4Z" fill="#11BBF0"></path><path d="M1618.3 328.1L1618.3 414.703L1543.3 371.401L1618.3 328.1Z" fill="#12A0F2"></path><path d="M1618.3 414.7L1693.3 458.001L1618.3 501.303L1618.3 414.7Z" fill="#6FBBD9"></path><path d="M1618.3 414.7L1618.3 501.303L1543.3 458.001L1618.3 414.7Z" fill="#0F80C1"></path><path d="M1843.3 284.8L1843.3 371.403L1768.3 328.101L1843.3 284.8Z" fill="#11BBF0"></path><path d="M1768.3 241.5L1843.3 284.801L1768.3 328.103L1768.3 241.5Z" fill="#0F80C1"></path><path d="M1693.3 284.8L1768.3 328.101L1693.3 371.403L1693.3 284.8Z" fill="#11BBF0"></path><path d="M1768.3 241.5L1768.3 328.103L1693.3 284.801L1768.3 241.5Z" fill="#105CC1"></path><path d="M1843.3 371.4L1843.3 458.003L1768.3 414.701L1843.3 371.4Z" fill="#E7FA57"></path><path d="M1768.3 328.1L1843.3 371.401L1768.3 414.703L1768.3 328.1Z" fill="#24C790"></path><path d="M1693.3 371.4L1768.3 414.701L1693.3 458.003L1693.3 371.4Z" fill="#33ABA3"></path><path d="M1768.3 328.1L1768.3 414.703L1693.3 371.401L1768.3 328.1Z" fill="#5EEA3D"></path><path d="M1768.3 414.7L1843.3 458.001L1768.3 501.303L1768.3 414.7Z" fill="#5EEA3D"></path><path d="M1768.3 414.7L1768.3 501.303L1693.3 458.001L1768.3 414.7Z" fill="#24C790"></path></svg>