<svg xmlns="http://www.w3.org/2000/svg" fill="none" viewBox="43.3 25 750 346.4">
<path d="M643.301 154.903L643.301 68.3003L718.301 111.602L643.301 154.903Z" fill="#E7FA57"/>
<path d="M718.301 198.203L643.301 154.901L718.301 111.6L718.301 198.203Z" fill="#088A89"/>
<path d="M793.301 154.903L718.301 111.602L793.301 68.3003L793.301 154.903Z" fill="#33ABA3"/>
<path d="M718.301 198.203L718.301 111.6L793.301 154.901L718.301 198.203Z" fill="#5EEA3D"/>
<path d="M718.301 111.603L643.301 68.3013L718.301 25L718.301 111.603Z" fill="#5EEA3D"/>
<path d="M718.301 111.603L718.301 25L793.301 68.3013L718.301 111.603Z" fill="#24C790"/>
<path d="M118.301 284.803L43.3013 241.501L118.301 198.2L118.301 284.803Z" fill="#088A89"/>
<path d="M43.3013 241.503L43.3013 154.9L118.301 198.202L43.3013 241.503Z" fill="#E7FA57"/>
<path d="M493.301 154.903L493.301 68.3003L568.301 111.602L493.301 154.903Z" fill="#0F80C1"/>
<path d="M568.301 198.203L493.301 154.901L568.301 111.6L568.301 198.203Z" fill="#11BBF0"/>
<path d="M643.301 154.903L568.301 111.602L643.301 68.3003L643.301 154.903Z" fill="#11BBF0"/>
<path d="M568.301 198.203L568.301 111.6L643.301 154.901L568.301 198.203Z" fill="#E7FA57"/>
<path d="M568.301 111.603L493.301 68.3013L568.301 25L568.301 111.603Z" fill="#6FBBD9"/>
<path d="M568.301 111.603L568.301 25L643.301 68.3013L568.301 111.603Z" fill="#12A0F2"/>
<path d="M118.301 371.4L43.3013 328.099L118.301 284.798L118.301 371.4Z" fill="#12A0F2"/>
<path d="M193.301 328.103L118.301 284.802L193.301 241.5L193.301 328.103Z" fill="#105CC1"/>
<path d="M118.301 284.803L118.301 198.2L193.301 241.502L118.301 284.803Z" fill="#0F80C1"/>
<path d="M493.301 241.503L493.301 154.9L418.301 198.202L493.301 241.503Z" fill="#11BBF0"/>
<path d="M418.301 284.803L493.301 241.501L418.301 198.2L418.301 284.803Z" fill="#105CC1"/>
<path d="M343.301 241.503L418.301 198.202L343.301 154.9L343.301 241.503Z" fill="#11BBF0"/>
<path d="M418.301 284.803L418.301 198.2L343.301 241.501L418.301 284.803Z" fill="#12A0F2"/>
<path d="M418.301 198.203L493.301 154.901L418.301 111.6L418.301 198.203Z" fill="#24C790"/>
<path d="M493.301 154.903L418.301 111.602L493.301 68.3003L493.301 154.903Z" fill="#33ABA3"/>
<path d="M418.301 198.203L418.301 111.6L343.301 154.901L418.301 198.203Z" fill="#5EEA3D"/>
<path d="M343.301 68.3003L343.301 154.903L418.301 111.602L343.301 68.3003Z" fill="#088A89"/>
<path d="M418.301 25L343.301 68.3013L418.301 111.603L418.301 25Z" fill="#5EEA3D"/>
<path d="M418.301 111.603L418.301 25L493.301 68.3013L418.301 111.603Z" fill="#24C790"/>
<path d="M193.301 241.403L118.301 198.102L193.301 154.8L193.301 241.403Z" fill="#E7FA57"/>
<path d="M193.301 241.503L193.301 154.9L268.301 198.202L193.301 241.503Z" fill="#11BBF0"/>
<path d="M268.301 284.803L193.301 241.501L268.301 198.2L268.301 284.803Z" fill="#6FBBD9"/>
<path d="M343.301 241.503L268.301 198.202L343.301 154.9L343.301 241.503Z" fill="#105CC1"/>
<path d="M268.301 284.803L268.301 198.2L343.301 241.501L268.301 284.803Z" fill="#11BBF0"/>
<path d="M193.301 154.903L193.301 68.3003L268.301 111.602L193.301 154.903Z" fill="#6FBBD9"/>
<path d="M268.301 198.203L193.301 154.901L268.301 111.6L268.301 198.203Z" fill="#0F80C1"/>
<path d="M268.301 198.203L268.301 111.6L343.301 154.901L268.301 198.203Z" fill="#12A0F2"/>
<path d="M268.301 111.603L193.301 68.3013L268.301 25L268.301 111.603Z" fill="#105CC1"/>
<path d="M343.301 68.2998L268.301 111.601L343.301 154.902L343.301 68.2998Z" fill="#11BBF0"/>
<path d="M268.301 25.0002L268.301 111.603L343.301 68.3015L268.301 25.0002Z" fill="#12A0F2"/>
<path d="M43.3013 154.903L43.3013 68.3003L118.301 111.602L43.3013 154.903Z" fill="#11BBF0"/>
<path d="M118.301 198.203L43.3013 154.901L118.301 111.6L118.301 198.203Z" fill="#0F80C1"/>
<path d="M193.301 154.903L118.301 111.602L193.301 68.3003L193.301 154.903Z" fill="#11BBF0"/>
<path d="M118.301 198.203L118.301 111.6L193.301 154.901L118.301 198.203Z" fill="#105CC1"/>
<path d="M118.301 111.603L43.3013 68.3013L118.301 25L118.301 111.603Z" fill="#24C790"/>
<path d="M118.301 111.603L118.301 25L193.301 68.3013L118.301 111.603Z" fill="#5EEA3D"/>
</svg>
