<svg xmlns="http://www.w3.org/2000/svg" fill="none" viewBox="43.3 25 1050 389.7">
<path d="M193.301 328.1L193.301 414.703L118.301 371.401L193.301 328.1Z" fill="#11BBF0"/>
<path d="M118.301 284.8L193.301 328.101L118.301 371.403L118.301 284.8Z" fill="#6FBBD9"/>
<path d="M43.3013 328.1L118.301 371.401L43.3013 414.702L43.3013 328.1Z" fill="#105CC1"/>
<path d="M118.301 198.2L193.301 241.501L118.301 284.802L118.301 198.2Z" fill="#105CC1"/>
<path d="M118.301 284.8L118.301 371.403L43.3013 328.101L118.301 284.8Z" fill="#11BBF0"/>
<path d="M268.301 284.8L268.301 371.403L193.301 328.101L268.301 284.8Z" fill="#11BBF0"/>
<path d="M268.301 284.8L343.301 328.101L268.301 371.403L268.301 284.8Z" fill="#24C790"/>
<path d="M193.301 327.7L268.301 371.001L193.301 414.302L193.301 327.7Z" fill="#5EEA3D"/>
<path d="M343.301 154.7L418.301 198.001L343.301 241.302L343.301 154.7Z" fill="#12A0F2"/>
<path d="M343.301 241.5L418.301 284.801L343.301 328.103L343.301 241.5Z" fill="#5EEA3D"/>
<path d="M493.301 328.1L493.301 414.702L418.301 371.401L493.301 328.1Z" fill="#12A0F2"/>
<path d="M418.301 284.8L493.301 328.101L418.301 371.403L418.301 284.8Z" fill="#6FBBD9"/>
<path d="M343.301 328.1L418.301 371.401L343.301 414.702L343.301 328.1Z" fill="#105CC1"/>
<path d="M418.301 284.8L418.301 371.403L343.301 328.101L418.301 284.8Z" fill="#11BBF0"/>
<path d="M343.301 327.7L343.301 414.302L268.301 371.001L343.301 327.7Z" fill="#0F80C1"/>
<path d="M643.301 241.5L643.301 328.103L568.301 284.801L643.301 241.5Z" fill="#E7FA57"/>
<path d="M568.301 198.2L643.301 241.501L568.301 284.802L568.301 198.2Z" fill="#6FBBD9"/>
<path d="M493.301 241.5L568.301 284.801L493.301 328.103L493.301 241.5Z" fill="#33ABA3"/>
<path d="M568.301 198.2L568.301 284.802L493.301 241.501L568.301 198.2Z" fill="#5EEA3D"/>
<path d="M643.301 328.1L643.301 414.702L568.301 371.401L643.301 328.1Z" fill="#24C790"/>
<path d="M568.301 284.8L643.301 328.101L568.301 371.403L568.301 284.8Z" fill="#5EEA3D"/>
<path d="M493.301 328.1L568.301 371.401L493.301 414.702L493.301 328.1Z" fill="#24C790"/>
<path d="M568.301 284.8L568.301 371.403L493.301 328.101L568.301 284.8Z" fill="#6FBBD9"/>
<path d="M418.301 198.7L418.301 285.302L343.301 242.001L418.301 198.7Z" fill="#E7FA57"/>
<path d="M793.301 154.9L793.301 241.502L718.301 198.201L793.301 154.9Z" fill="#11BBF0"/>
<path d="M718.301 111.6L793.301 154.901L718.301 198.203L718.301 111.6Z" fill="#6FBBD9"/>
<path d="M643.301 154.9L718.301 198.201L643.301 241.502L643.301 154.9Z" fill="#105CC1"/>
<path d="M718.301 111.6L718.301 198.203L643.301 154.901L718.301 111.6Z" fill="#12A0F2"/>
<path d="M793.301 241.5L793.301 328.103L718.301 284.801L793.301 241.5Z" fill="#6FBBD9"/>
<path d="M718.301 198.2L793.301 241.501L718.301 284.802L718.301 198.2Z" fill="#12A0F2"/>
<path d="M643.301 241.5L718.301 284.801L643.301 328.103L643.301 241.5Z" fill="#6FBBD9"/>
<path d="M718.301 198.2L718.301 284.802L643.301 241.501L718.301 198.2Z" fill="#0F80C1"/>
<path d="M793.301 328.1L793.301 414.703L718.301 371.401L793.301 328.1Z" fill="#0F80C1"/>
<path d="M718.301 284.8L793.301 328.101L718.301 371.403L718.301 284.8Z" fill="#105CC1"/>
<path d="M643.301 328.1L718.301 371.401L643.301 414.702L643.301 328.1Z" fill="#11BBF0"/>
<path d="M718.301 284.8L718.301 371.403L643.301 328.101L718.301 284.8Z" fill="#12A0F2"/>
<path d="M943.301 68.3L943.301 154.903L868.301 111.601L943.301 68.3Z" fill="#E7FA57"/>
<path d="M868.301 25L943.301 68.3013L868.301 111.603L868.301 25Z" fill="#33ABA3"/>
<path d="M793.301 68.2998L868.301 111.601L793.301 154.902L793.301 68.2998Z" fill="#088A89"/>
<path d="M868.301 25L868.301 111.603L793.301 68.3013L868.301 25Z" fill="#5EEA3D"/>
<path d="M943.301 154.9L943.301 241.502L868.301 198.201L943.301 154.9Z" fill="#24C790"/>
<path d="M868.301 111.6L943.301 154.901L868.301 198.202L868.301 111.6Z" fill="#5EEA3D"/>
<path d="M793.301 154.9L868.301 198.201L793.301 241.502L793.301 154.9Z" fill="#24C790"/>
<path d="M868.301 111.6L868.301 198.202L793.301 154.901L868.301 111.6Z" fill="#33ABA3"/>
<path d="M943.301 241.5L943.301 328.103L868.301 284.801L943.301 241.5Z" fill="#24C790"/>
<path d="M868.301 198.2L943.301 241.501L868.301 284.802L868.301 198.2Z" fill="#088A89"/>
<path d="M793.301 241.5L868.301 284.801L793.301 328.103L793.301 241.5Z" fill="#5EEA3D"/>
<path d="M868.301 198.2L868.301 284.802L793.301 241.501L868.301 198.2Z" fill="#E7FA57"/>
<path d="M943.301 328.1L943.301 414.703L868.301 371.401L943.301 328.1Z" fill="#5EEA3D"/>
<path d="M868.301 284.8L943.301 328.101L868.301 371.403L868.301 284.8Z" fill="#33ABA3"/>
<path d="M793.301 328.1L868.301 371.401L793.301 414.702L793.301 328.1Z" fill="#33ABA3"/>
<path d="M868.301 284.8L868.301 371.403L793.301 328.101L868.301 284.8Z" fill="#24C790"/>
<path d="M1093.3 68.2998L1093.3 154.902L1018.3 111.601L1093.3 68.2998Z" fill="#E7FA57"/>
<path d="M1093.3 154.9L1093.3 241.502L1018.3 198.201L1093.3 154.9Z" fill="#12A0F2"/>
<path d="M1018.3 111.6L1093.3 154.901L1018.3 198.202L1018.3 111.6Z" fill="#6FBBD9"/>
<path d="M943.301 154.9L1018.3 198.201L943.301 241.502L943.301 154.9Z" fill="#0F80C1"/>
<path d="M1018.3 111.6L1018.3 198.202L943.301 154.901L1018.3 111.6Z" fill="#11BBF0"/>
<path d="M1093.3 241.5L1093.3 328.103L1018.3 284.801L1093.3 241.5Z" fill="#6FBBD9"/>
<path d="M1018.3 198.2L1093.3 241.501L1018.3 284.802L1018.3 198.2Z" fill="#11BBF0"/>
<path d="M943.301 241.5L1018.3 284.801L943.301 328.103L943.301 241.5Z" fill="#6FBBD9"/>
<path d="M1018.3 198.2L1018.3 284.802L943.301 241.501L1018.3 198.2Z" fill="#105CC1"/>
<path d="M1093.3 328.1L1093.3 414.702L1018.3 371.401L1093.3 328.1Z" fill="#105CC1"/>
<path d="M1018.3 284.8L1093.3 328.101L1018.3 371.402L1018.3 284.8Z" fill="#0F80C1"/>
<path d="M943.301 328.1L1018.3 371.401L943.301 414.702L943.301 328.1Z" fill="#11BBF0"/>
<path d="M1018.3 284.8L1018.3 371.402L943.301 328.101L1018.3 284.8Z" fill="#12A0F2"/>
</svg>
