<svg width="436" height="436" viewBox="0 0 436 436" fill="none" xmlns="http://www.w3.org/2000/svg">
<g filter="url(#filter0_d_2_12)">
<path d="M217.847 56.3471C260.68 56.3471 301.758 73.3622 332.045 103.649C362.332 133.936 379.347 175.015 379.347 217.847C379.347 260.68 362.332 301.758 332.045 332.045C301.758 362.332 260.68 379.347 217.847 379.347L217.847 217.847L217.847 56.3471Z" fill="#2D363F"/>
<path d="M217.85 379.35C192.364 379.35 167.239 373.318 144.531 361.747C121.822 350.177 102.174 333.396 87.1938 312.777C72.2132 292.158 62.3253 268.286 58.3383 243.114C54.3514 217.941 56.3787 192.182 64.2544 167.943L217.85 217.85L217.85 379.35Z" fill="#46A0DB"/>
<path d="M64.225 167.914C70.7788 147.744 81.2412 129.062 95.015 112.935C108.789 96.8077 125.604 83.5515 144.501 73.9231L217.821 217.821L64.225 167.914Z" fill="#D1D1C7"/>
<path d="M144.559 73.9354C167.267 62.3649 192.392 56.333 217.878 56.333L217.878 217.833L144.559 73.9354Z" fill="#D7FF45"/>
<path d="M314.555 219.482C316.134 219.482 317.302 219.792 318.059 220.41C318.816 221.018 319.195 221.85 319.195 222.906C319.195 223.578 319.03 224.186 318.699 224.73C318.368 225.274 317.872 225.706 317.211 226.026C316.55 226.346 315.734 226.506 314.763 226.506C313.963 226.506 313.19 226.394 312.443 226.17C311.696 225.936 311.067 225.616 310.555 225.21L311.435 223.594C311.851 223.936 312.347 224.208 312.923 224.41C313.51 224.602 314.112 224.698 314.731 224.698C315.467 224.698 316.043 224.549 316.459 224.25C316.886 223.941 317.099 223.52 317.099 222.986C317.099 222.41 316.87 221.978 316.411 221.69C315.963 221.392 315.19 221.242 314.091 221.242H311.387L311.963 215.146H318.539V216.89H313.723L313.483 219.482H314.555ZM325.067 226.506C324.171 226.506 323.371 226.282 322.667 225.834C321.963 225.376 321.408 224.714 321.003 223.85C320.598 222.976 320.395 221.941 320.395 220.746C320.395 219.552 320.598 218.522 321.003 217.658C321.408 216.784 321.963 216.122 322.667 215.674C323.371 215.216 324.171 214.986 325.067 214.986C325.963 214.986 326.763 215.216 327.467 215.674C328.182 216.122 328.742 216.784 329.147 217.658C329.552 218.522 329.755 219.552 329.755 220.746C329.755 221.941 329.552 222.976 329.147 223.85C328.742 224.714 328.182 225.376 327.467 225.834C326.763 226.282 325.963 226.506 325.067 226.506ZM325.067 224.698C325.867 224.698 326.496 224.368 326.955 223.706C327.424 223.045 327.659 222.058 327.659 220.746C327.659 219.434 327.424 218.448 326.955 217.786C326.496 217.125 325.867 216.794 325.067 216.794C324.278 216.794 323.648 217.125 323.179 217.786C322.72 218.448 322.491 219.434 322.491 220.746C322.491 222.058 322.72 223.045 323.179 223.706C323.648 224.368 324.278 224.698 325.067 224.698ZM333.656 221.178C332.856 221.178 332.211 220.896 331.72 220.33C331.23 219.765 330.984 219.024 330.984 218.106C330.984 217.189 331.23 216.448 331.72 215.882C332.211 215.317 332.856 215.034 333.656 215.034C334.456 215.034 335.102 215.317 335.592 215.882C336.094 216.437 336.344 217.178 336.344 218.106C336.344 219.034 336.094 219.781 335.592 220.346C335.102 220.901 334.456 221.178 333.656 221.178ZM340.376 215.146H341.944L334.296 226.346H332.728L340.376 215.146ZM333.656 220.058C334.094 220.058 334.43 219.888 334.664 219.546C334.91 219.205 335.032 218.725 335.032 218.106C335.032 217.488 334.91 217.008 334.664 216.666C334.43 216.325 334.094 216.154 333.656 216.154C333.24 216.154 332.904 216.33 332.648 216.682C332.403 217.024 332.28 217.498 332.28 218.106C332.28 218.714 332.403 219.194 332.648 219.546C332.904 219.888 333.24 220.058 333.656 220.058ZM341 226.458C340.2 226.458 339.555 226.176 339.064 225.61C338.574 225.045 338.328 224.304 338.328 223.386C338.328 222.469 338.574 221.728 339.064 221.162C339.555 220.597 340.2 220.314 341 220.314C341.8 220.314 342.446 220.597 342.936 221.162C343.438 221.728 343.688 222.469 343.688 223.386C343.688 224.304 343.438 225.045 342.936 225.61C342.446 226.176 341.8 226.458 341 226.458ZM341 225.338C341.427 225.338 341.763 225.168 342.008 224.826C342.254 224.474 342.376 223.994 342.376 223.386C342.376 222.778 342.254 222.304 342.008 221.962C341.763 221.61 341.427 221.434 341 221.434C340.574 221.434 340.238 221.605 339.992 221.946C339.747 222.288 339.624 222.768 339.624 223.386C339.624 224.005 339.747 224.485 339.992 224.826C340.238 225.168 340.574 225.338 341 225.338Z" fill="white"/>
<path d="M112.819 289.771C113.854 289.899 114.643 290.251 115.187 290.827C115.731 291.403 116.003 292.123 116.003 292.987C116.003 293.638 115.838 294.23 115.507 294.763C115.176 295.296 114.675 295.723 114.003 296.043C113.342 296.352 112.531 296.507 111.571 296.507C110.771 296.507 109.998 296.395 109.251 296.171C108.515 295.936 107.886 295.616 107.363 295.211L108.259 293.595C108.664 293.936 109.155 294.208 109.731 294.411C110.318 294.603 110.92 294.699 111.539 294.699C112.275 294.699 112.851 294.55 113.267 294.251C113.694 293.942 113.907 293.526 113.907 293.003C113.907 292.48 113.704 292.075 113.299 291.787C112.904 291.488 112.296 291.339 111.475 291.339H110.451V289.915L112.995 286.891H107.907V285.147H115.539V286.539L112.819 289.771ZM122.036 296.507C121.14 296.507 120.34 296.283 119.636 295.835C118.932 295.376 118.377 294.715 117.972 293.851C117.566 292.976 117.364 291.942 117.364 290.747C117.364 289.552 117.566 288.523 117.972 287.659C118.377 286.784 118.932 286.123 119.636 285.675C120.34 285.216 121.14 284.987 122.036 284.987C122.932 284.987 123.732 285.216 124.436 285.675C125.15 286.123 125.71 286.784 126.116 287.659C126.521 288.523 126.724 289.552 126.724 290.747C126.724 291.942 126.521 292.976 126.116 293.851C125.71 294.715 125.15 295.376 124.436 295.835C123.732 296.283 122.932 296.507 122.036 296.507ZM122.036 294.699C122.836 294.699 123.465 294.368 123.924 293.707C124.393 293.046 124.628 292.059 124.628 290.747C124.628 289.435 124.393 288.448 123.924 287.787C123.465 287.126 122.836 286.795 122.036 286.795C121.246 286.795 120.617 287.126 120.148 287.787C119.689 288.448 119.46 289.435 119.46 290.747C119.46 292.059 119.689 293.046 120.148 293.707C120.617 294.368 121.246 294.699 122.036 294.699ZM130.625 291.179C129.825 291.179 129.18 290.896 128.689 290.331C128.199 289.766 127.953 289.024 127.953 288.107C127.953 287.19 128.199 286.448 128.689 285.883C129.18 285.318 129.825 285.035 130.625 285.035C131.425 285.035 132.071 285.318 132.561 285.883C133.063 286.438 133.313 287.179 133.313 288.107C133.313 289.035 133.063 289.782 132.561 290.347C132.071 290.902 131.425 291.179 130.625 291.179ZM137.345 285.147H138.913L131.265 296.347H129.697L137.345 285.147ZM130.625 290.059C131.063 290.059 131.399 289.888 131.633 289.547C131.879 289.206 132.001 288.726 132.001 288.107C132.001 287.488 131.879 287.008 131.633 286.667C131.399 286.326 131.063 286.155 130.625 286.155C130.209 286.155 129.873 286.331 129.617 286.683C129.372 287.024 129.249 287.499 129.249 288.107C129.249 288.715 129.372 289.195 129.617 289.547C129.873 289.888 130.209 290.059 130.625 290.059ZM137.969 296.459C137.169 296.459 136.524 296.176 136.033 295.611C135.543 295.046 135.297 294.304 135.297 293.387C135.297 292.47 135.543 291.728 136.033 291.163C136.524 290.598 137.169 290.315 137.969 290.315C138.769 290.315 139.415 290.598 139.905 291.163C140.407 291.728 140.657 292.47 140.657 293.387C140.657 294.304 140.407 295.046 139.905 295.611C139.415 296.176 138.769 296.459 137.969 296.459ZM137.969 295.339C138.396 295.339 138.732 295.168 138.977 294.827C139.223 294.475 139.345 293.995 139.345 293.387C139.345 292.779 139.223 292.304 138.977 291.963C138.732 291.611 138.396 291.435 137.969 291.435C137.543 291.435 137.207 291.606 136.961 291.947C136.716 292.288 136.593 292.768 136.593 293.387C136.593 294.006 136.716 294.486 136.961 294.827C137.207 295.168 137.543 295.339 137.969 295.339Z" fill="white"/>
<path d="M107.923 136.146V147.346H105.843V137.89H103.475V136.146H107.923ZM118.257 145.586V147.346H110.001V145.954L114.449 141.73C114.95 141.25 115.286 140.834 115.457 140.482C115.638 140.12 115.729 139.762 115.729 139.41C115.729 138.888 115.553 138.488 115.201 138.21C114.849 137.933 114.331 137.794 113.649 137.794C112.507 137.794 111.633 138.184 111.025 138.962L109.569 137.842C110.006 137.256 110.593 136.802 111.329 136.482C112.075 136.152 112.907 135.986 113.825 135.986C115.041 135.986 116.011 136.274 116.737 136.85C117.462 137.426 117.825 138.21 117.825 139.202C117.825 139.81 117.697 140.381 117.441 140.914C117.185 141.448 116.694 142.056 115.969 142.738L112.977 145.586H118.257ZM120.862 147.458C120.499 147.458 120.19 147.336 119.934 147.09C119.678 146.834 119.55 146.514 119.55 146.13C119.55 145.736 119.672 145.416 119.918 145.17C120.174 144.925 120.488 144.802 120.862 144.802C121.235 144.802 121.544 144.925 121.79 145.17C122.046 145.416 122.174 145.736 122.174 146.13C122.174 146.514 122.046 146.834 121.79 147.09C121.534 147.336 121.224 147.458 120.862 147.458ZM127.024 140.482C128.602 140.482 129.77 140.792 130.528 141.41C131.285 142.018 131.664 142.85 131.664 143.906C131.664 144.578 131.498 145.186 131.168 145.73C130.837 146.274 130.341 146.706 129.68 147.026C129.018 147.346 128.202 147.506 127.232 147.506C126.432 147.506 125.658 147.394 124.912 147.17C124.165 146.936 123.536 146.616 123.024 146.21L123.904 144.594C124.32 144.936 124.816 145.208 125.392 145.41C125.978 145.602 126.581 145.698 127.2 145.698C127.936 145.698 128.512 145.549 128.928 145.25C129.354 144.941 129.568 144.52 129.568 143.986C129.568 143.41 129.338 142.978 128.88 142.69C128.432 142.392 127.658 142.242 126.56 142.242H123.856L124.432 136.146H131.008V137.89H126.192L125.952 140.482H127.024ZM135.203 142.178C134.403 142.178 133.758 141.896 133.267 141.33C132.777 140.765 132.531 140.024 132.531 139.106C132.531 138.189 132.777 137.448 133.267 136.882C133.758 136.317 134.403 136.034 135.203 136.034C136.003 136.034 136.649 136.317 137.139 136.882C137.641 137.437 137.891 138.178 137.891 139.106C137.891 140.034 137.641 140.781 137.139 141.346C136.649 141.901 136.003 142.178 135.203 142.178ZM141.923 136.146H143.491L135.843 147.346H134.275L141.923 136.146ZM135.203 141.058C135.641 141.058 135.977 140.888 136.211 140.546C136.457 140.205 136.579 139.725 136.579 139.106C136.579 138.488 136.457 138.008 136.211 137.666C135.977 137.325 135.641 137.154 135.203 137.154C134.787 137.154 134.451 137.33 134.195 137.682C133.95 138.024 133.827 138.498 133.827 139.106C133.827 139.714 133.95 140.194 134.195 140.546C134.451 140.888 134.787 141.058 135.203 141.058ZM142.547 147.458C141.747 147.458 141.102 147.176 140.611 146.61C140.121 146.045 139.875 145.304 139.875 144.386C139.875 143.469 140.121 142.728 140.611 142.162C141.102 141.597 141.747 141.314 142.547 141.314C143.347 141.314 143.993 141.597 144.483 142.162C144.985 142.728 145.235 143.469 145.235 144.386C145.235 145.304 144.985 146.045 144.483 146.61C143.993 147.176 143.347 147.458 142.547 147.458ZM142.547 146.338C142.974 146.338 143.31 146.168 143.555 145.826C143.801 145.474 143.923 144.994 143.923 144.386C143.923 143.778 143.801 143.304 143.555 142.962C143.31 142.61 142.974 142.434 142.547 142.434C142.121 142.434 141.785 142.605 141.539 142.946C141.294 143.288 141.171 143.768 141.171 144.386C141.171 145.005 141.294 145.485 141.539 145.826C141.785 146.168 142.121 146.338 142.547 146.338Z" fill="#242E3B"/>
<path d="M179.499 85.1464V86.5384L175.147 96.3464H172.923L177.131 86.9064H172.731V88.8104H170.795V85.1464H179.499ZM181.237 96.4584C180.874 96.4584 180.565 96.3357 180.309 96.0904C180.053 95.8344 179.925 95.5144 179.925 95.1304C179.925 94.7357 180.047 94.4157 180.293 94.1704C180.549 93.925 180.863 93.8024 181.237 93.8024C181.61 93.8024 181.919 93.925 182.165 94.1704C182.421 94.4157 182.549 94.7357 182.549 95.1304C182.549 95.5144 182.421 95.8344 182.165 96.0904C181.909 96.3357 181.599 96.4584 181.237 96.4584ZM187.399 89.4824C188.977 89.4824 190.145 89.7917 190.903 90.4104C191.66 91.0184 192.039 91.8504 192.039 92.9064C192.039 93.5784 191.873 94.1864 191.543 94.7304C191.212 95.2744 190.716 95.7064 190.055 96.0264C189.393 96.3464 188.577 96.5064 187.607 96.5064C186.807 96.5064 186.033 96.3944 185.287 96.1704C184.54 95.9357 183.911 95.6157 183.399 95.2104L184.279 93.5944C184.695 93.9357 185.191 94.2077 185.767 94.4104C186.353 94.6024 186.956 94.6984 187.575 94.6984C188.311 94.6984 188.887 94.549 189.303 94.2504C189.729 93.941 189.943 93.5197 189.943 92.9864C189.943 92.4104 189.713 91.9784 189.255 91.6904C188.807 91.3917 188.033 91.2424 186.935 91.2424H184.231L184.807 85.1464H191.383V86.8904H186.567L186.327 89.4824H187.399ZM195.578 91.1784C194.778 91.1784 194.133 90.8957 193.642 90.3304C193.152 89.765 192.906 89.0237 192.906 88.1064C192.906 87.189 193.152 86.4477 193.642 85.8824C194.133 85.317 194.778 85.0344 195.578 85.0344C196.378 85.0344 197.024 85.317 197.514 85.8824C198.016 86.437 198.266 87.1784 198.266 88.1064C198.266 89.0344 198.016 89.781 197.514 90.3464C197.024 90.901 196.378 91.1784 195.578 91.1784ZM202.298 85.1464H203.866L196.218 96.3464H194.65L202.298 85.1464ZM195.578 90.0584C196.016 90.0584 196.352 89.8877 196.586 89.5464C196.832 89.205 196.954 88.725 196.954 88.1064C196.954 87.4877 196.832 87.0077 196.586 86.6664C196.352 86.325 196.016 86.1544 195.578 86.1544C195.162 86.1544 194.826 86.3304 194.57 86.6824C194.325 87.0237 194.202 87.4984 194.202 88.1064C194.202 88.7144 194.325 89.1944 194.57 89.5464C194.826 89.8877 195.162 90.0584 195.578 90.0584ZM202.922 96.4584C202.122 96.4584 201.477 96.1757 200.986 95.6104C200.496 95.045 200.25 94.3037 200.25 93.3864C200.25 92.469 200.496 91.7277 200.986 91.1624C201.477 90.597 202.122 90.3144 202.922 90.3144C203.722 90.3144 204.368 90.597 204.858 91.1624C205.36 91.7277 205.61 92.469 205.61 93.3864C205.61 94.3037 205.36 95.045 204.858 95.6104C204.368 96.1757 203.722 96.4584 202.922 96.4584ZM202.922 95.3384C203.349 95.3384 203.685 95.1677 203.93 94.8264C204.176 94.4744 204.298 93.9944 204.298 93.3864C204.298 92.7784 204.176 92.3037 203.93 91.9624C203.685 91.6104 203.349 91.4344 202.922 91.4344C202.496 91.4344 202.16 91.605 201.914 91.9464C201.669 92.2877 201.546 92.7677 201.546 93.3864C201.546 94.005 201.669 94.485 201.914 94.8264C202.16 95.1677 202.496 95.3384 202.922 95.3384Z" fill="#242E3B"/>
</g>
<defs>
<filter id="filter0_d_2_12" x="56.35" y="56.333" width="330.997" height="331.017" filterUnits="userSpaceOnUse" color-interpolation-filters="sRGB">
<feFlood flood-opacity="0" result="BackgroundImageFix"/>
<feColorMatrix in="SourceAlpha" type="matrix" values="0 0 0 0 0 0 0 0 0 0 0 0 0 0 0 0 0 0 127 0" result="hardAlpha"/>
<feOffset dx="4" dy="4"/>
<feGaussianBlur stdDeviation="2"/>
<feComposite in2="hardAlpha" operator="out"/>
<feColorMatrix type="matrix" values="0 0 0 0 0 0 0 0 0 0 0 0 0 0 0 0 0 0 0.25 0"/>
<feBlend mode="normal" in2="BackgroundImageFix" result="effect1_dropShadow_2_12"/>
<feBlend mode="normal" in="SourceGraphic" in2="effect1_dropShadow_2_12" result="shape"/>
</filter>
</defs>
</svg>
