<?xml version="1.0" encoding="UTF-8"?>
<svg width="400px" height="402px" viewBox="0 0 400 402" version="1.1" xmlns="http://www.w3.org/2000/svg" xmlns:xlink="http://www.w3.org/1999/xlink">
    <title>Group</title>
    <defs>
        <path d="M181.984733,0 L181.984733,195.229358 L0.287951145,123.360611 C29.7963237,48.9036729 101.826076,0 181.984733,0 Z" id="path-1"></path>
        <path d="M14.3337527,0.122079358 L196.030534,71.9908257 L183.76,266.834943 C163.293985,265.548584 143.158168,261.052083 124.091664,253.510495 C23.7433282,213.818493 -25.396971,100.37266 14.3337527,0.122079358 Z" id="path-3"></path>
        <path d="M12.8244275,0 L163.397985,124.44389 C123.92277,172.11473 64.1940508,198.242506 2.42625004,194.952817 L0.55389313,194.844117 L12.8244275,0 Z" id="path-5"></path>
        <path d="M195.03426,0.553353211 C198.123966,49.6157696 182.572441,98.0174502 151.519303,136.104821 L150.573557,137.255817 L0,12.8119266 L195.03426,0.553353211 Z" id="path-7"></path>
        <path d="M164.998412,0.326643119 C182.459533,27.8141448 192.760029,59.2229488 194.969775,91.6929453 L195.03426,92.6772064 L0,104.93578 L164.998412,0.326643119 Z" id="path-9"></path>
        <path d="M124.565313,0.265877982 C140.122717,13.1235633 153.590157,28.3110258 164.489393,45.2864914 L164.998412,46.0835239 L0,150.692661 L124.565313,0.265877982 Z" id="path-11"></path>
        <path d="M71.9388702,0.287658257 C90.7119831,7.7132219 108.218009,17.9998156 123.834668,30.7796762 L124.565313,31.3805569 L0,181.807339 L71.9388702,0.287658257 Z" id="path-13"></path>
        <path d="M0,0 C24.3404013,0 48.4639506,4.54277828 71.1299906,13.3918093 L71.9388702,13.7096766 L0,195.229358 L0,0 Z" id="path-15"></path>
    </defs>
    <g id="Page-1" stroke="none" stroke-width="1" fill="none" fill-rule="evenodd">
        <g id="Group" transform="translate(0.000000, 0.531100)">
            <g id="Group-53" transform="translate(0.000000, 0.468900)">
                <g id="Group-6" transform="translate(14.045802, 8.541284)">
                    <path d="M181.984733,195.229358 L181.984733,0 C101.826076,0 29.7963237,48.9036729 0.287951145,123.360611 L181.984733,195.229358 Z" id="Fill-1" fill="#9FDDFC"></path>
                    <g id="Group-5">
                        <mask id="mask-2" fill="white">
                            <use xlink:href="#path-1"></use>
                        </mask>
                        <g id="Clip-4"></g>
                        <path d="M181.984708,195.229358 L181.984708,-7.80917433e-06 C101.826051,-7.80917433e-06 29.7963231,48.9036424 0.287956641,123.360611 L181.984708,195.229358 Z" id="Stroke-3" stroke="#FFFFFF" stroke-width="4" mask="url(#mask-2)"></path>
                    </g>
                </g>
                <g id="Group-12" transform="translate(0.000000, 131.779817)">
                    <path d="M196.030534,71.9908257 L14.3337527,0.122079358 C-25.396971,100.37266 23.7433282,213.818493 124.091664,253.510495 C143.158168,261.052083 163.293985,265.548584 183.76,266.834943 L196.030534,71.9908257 Z" id="Fill-7" fill="#8AC2DC"></path>
                    <g id="Group-11">
                        <mask id="mask-4" fill="white">
                            <use xlink:href="#path-3"></use>
                        </mask>
                        <g id="Clip-10"></g>
                        <path d="M196.030509,71.9908257 L14.3337582,0.122079358 C-25.3969716,100.37266 23.7433276,213.818487 124.0917,253.510507 C143.158143,261.052095 163.29396,265.548593 183.760036,266.834911 L196.030509,71.9908257 Z" id="Stroke-9" stroke="#FFFFFF" stroke-width="4" mask="url(#mask-4)"></path>
                    </g>
                </g>
                <g id="Group-18" transform="translate(183.206107, 203.770642)">
                    <path d="M12.8244275,0 L0.55389313,194.844117 C62.9853435,198.768141 123.524031,172.596254 163.397985,124.44389 L12.8244275,0 Z" id="Fill-13" fill="#5E9ED6"></path>
                    <g id="Group-17">
                        <mask id="mask-6" fill="white">
                            <use xlink:href="#path-5"></use>
                        </mask>
                        <g id="Clip-16"></g>
                        <path d="M12.8244024,0 L0.55392916,194.844085 C62.9853185,198.768134 123.524005,172.596235 163.398021,124.44389 L12.8244024,0 Z" id="Stroke-15" stroke="#FFFFFF" stroke-width="4" mask="url(#mask-6)"></path>
                    </g>
                </g>
                <g id="Group-24" transform="translate(196.030534, 190.958716)">
                    <path d="M0,12.8119266 L150.573557,137.255817 C182.256366,98.9951945 198.155176,50.1113495 195.03426,0.553353211 L0,12.8119266 Z" id="Fill-19" fill="#262E3A"></path>
                    <g id="Group-23">
                        <mask id="mask-8" fill="white">
                            <use xlink:href="#path-7"></use>
                        </mask>
                        <g id="Clip-22"></g>
                        <path d="M-2.50381679e-05,12.8119266 L150.573593,137.255817 C182.256402,98.9951945 198.155212,50.1113495 195.034235,0.553353211 L-2.50381679e-05,12.8119266 Z" id="Stroke-21" stroke="#FFFFFF" stroke-width="4" mask="url(#mask-8)"></path>
                    </g>
                </g>
                <g id="Group-31" transform="translate(196.030534, 98.834862)">
                    <path d="M0,104.93578 L195.03426,92.6772064 C192.967389,59.8578702 182.635908,28.0917963 164.998412,0.326643119 L0,104.93578 Z" id="Fill-26" fill="#262E3A"></path>
                    <g id="Group-30">
                        <mask id="mask-10" fill="white">
                            <use xlink:href="#path-9"></use>
                        </mask>
                        <g id="Clip-29"></g>
                        <path d="M-2.50381679e-05,104.93578 L195.034235,92.6772064 C192.967425,59.8578092 182.635883,28.0917353 164.998448,0.326643119 L-2.50381679e-05,104.93578 Z" id="Stroke-28" stroke="#FFFFFF" stroke-width="4" mask="url(#mask-10)"></path>
                    </g>
                </g>
                <g id="Group-38" transform="translate(196.030534, 53.077982)">
                    <path d="M0,150.692661 L164.998412,46.0835239 C154.010504,28.7862028 140.365802,13.3244647 124.565313,0.265877982 L0,150.692661 Z" id="Fill-33" fill="#142644"></path>
                    <g id="Group-37">
                        <mask id="mask-12" fill="white">
                            <use xlink:href="#path-11"></use>
                        </mask>
                        <g id="Clip-36"></g>
                        <path d="M-2.50381679e-05,150.692661 L164.998448,46.0835239 C154.010479,28.7862028 140.365838,13.3244403 124.565288,0.265847477 L-2.50381679e-05,150.692661 Z" id="Stroke-35" stroke="#FFFFFF" stroke-width="4" mask="url(#mask-12)"></path>
                    </g>
                </g>
                <g id="Group-45" transform="translate(196.030534, 21.963303)">
                    <path d="M0,181.807339 L124.565313,31.3805569 C108.764763,18.3219702 91.005313,7.82924633 71.9388702,0.287658257 L0,181.807339 Z" id="Fill-40" fill="#224376"></path>
                    <g id="Group-44">
                        <mask id="mask-14" fill="white">
                            <use xlink:href="#path-13"></use>
                        </mask>
                        <g id="Clip-43"></g>
                        <path d="M-2.50381679e-05,181.807339 L124.565288,31.3805264 C108.764738,18.3219336 91.0052879,7.82925243 71.9388452,0.287664358 L-2.50381679e-05,181.807339 Z" id="Stroke-42" stroke="#FFFFFF" stroke-width="4" mask="url(#mask-14)"></path>
                    </g>
                </g>
                <g id="Group-52" transform="translate(196.030534, 8.541284)">
                    <path d="M0,195.229358 L71.9388702,13.7096766 C49.0382901,4.65158349 24.6301679,0 0,0 L0,195.229358 Z" id="Fill-47" fill="#1B345B"></path>
                    <g id="Group-51">
                        <mask id="mask-16" fill="white">
                            <use xlink:href="#path-15"></use>
                        </mask>
                        <g id="Clip-50"></g>
                        <path d="M-2.50381679e-05,195.229358 L71.9388452,13.7096827 C49.0383261,4.65155786 24.6301429,-7.80917433e-06 -2.50381679e-05,-7.80917433e-06 L-2.50381679e-05,195.229358 Z" id="Stroke-49" stroke="#FFFFFF" stroke-width="4" mask="url(#mask-16)"></path>
                    </g>
                </g>
            </g>
            <g id="Group-55" transform="translate(76.000000, 70.468900)" fill="#FFFFFF" font-family="HelveticaNeue, Helvetica Neue" font-size="36" font-weight="normal">
                <text id="19%">
                    <tspan x="0" y="34">19%</tspan>
                </text>
            </g>
            <g id="Group-57" transform="translate(45.000000, 262.468900)" fill="#FFFFFF" font-family="HelveticaNeue, Helvetica Neue" font-size="36" font-weight="normal">
                <text id="30%">
                    <tspan x="0.57394563" y="34.2503871">30%</tspan>
                </text>
            </g>
            <g id="Group-59" transform="translate(215.000000, 319.468900)" fill="#FFFFFF" font-family="HelveticaNeue, Helvetica Neue" font-size="36" font-weight="normal">
                <text id="15%">
                    <tspan x="0.202314286" y="34.1744744">15%</tspan>
                </text>
            </g>
            <g id="Group-61" transform="translate(324.000000, 242.468900)" fill="#FFFFFF" font-family="HelveticaNeue, Helvetica Neue" font-size="16" font-weight="normal">
                <text id="12%">
                    <tspan x="0.444747899" y="15.5788615">12%</tspan>
                </text>
            </g>
            <g id="Group-63" transform="translate(338.000000, 151.468900)" fill="#FFFFFF" font-family="HelveticaNeue, Helvetica Neue" font-size="16" font-weight="normal">
                <text id="8%">
                    <tspan x="0.0595708333" y="15.6388008">8%</tspan>
                </text>
            </g>
            <g id="Group-65" transform="translate(309.000000, 87.468900)" fill="#FFFFFF" font-family="HelveticaNeue, Helvetica Neue" font-size="16" font-weight="normal">
                <text id="5%">
                    <tspan x="0.0596916667" y="15.5909208">5%</tspan>
                </text>
            </g>
            <g id="Group-67" transform="translate(268.000000, 53.468900)" fill="#FFFFFF" font-family="HelveticaNeue, Helvetica Neue" font-size="16" font-weight="normal">
                <text id="5%">
                    <tspan x="0.490583333" y="15.6722208">5%</tspan>
                </text>
            </g>
            <g id="Group-69" transform="translate(209.000000, 31.468900)" fill="#FFFFFF" font-family="HelveticaNeue, Helvetica Neue" font-size="16" font-weight="normal">
                <text id="6%">
                    <tspan x="0" y="15.6">6%</tspan>
                </text>
            </g>
        </g>
    </g>
</svg>