<svg width="436" height="436" viewBox="0 0 436 436" fill="none" xmlns="http://www.w3.org/2000/svg">
<path d="M220.5 64C263.332 64 304.411 81.0151 334.698 111.302C364.985 141.589 382 182.668 382 225.5C382 268.332 364.985 309.411 334.698 339.698C304.411 369.985 263.332 387 220.5 387L220.5 225.5L220.5 64Z" fill="#2D363F"/>
<path d="M217.5 388C192.014 388 166.889 381.968 144.181 370.398C121.472 358.827 101.824 342.046 86.8438 321.427C71.8632 300.808 61.9753 276.937 57.9883 251.764C54.0014 226.592 56.0286 200.833 63.9044 176.594L217.5 226.5L217.5 388Z" fill="#46A0DB"/>
<path d="M62.489 171.55C69.105 151.4 79.625 132.751 93.4485 116.666C107.272 100.582 124.128 87.3773 143.055 77.8071L215.93 221.93L62.489 171.55Z" fill="#D1D1C7"/>
<path d="M144.55 73.9724C167.259 62.4018 192.384 56.3699 217.87 56.3699L217.87 217.87L144.55 73.9724Z" fill="#D7FF45"/>
<path d="M317.208 227.136C318.787 227.136 319.955 227.445 320.712 228.064C321.469 228.672 321.848 229.504 321.848 230.56C321.848 231.232 321.683 231.84 321.352 232.384C321.021 232.928 320.525 233.36 319.864 233.68C319.203 234 318.387 234.16 317.416 234.16C316.616 234.16 315.843 234.048 315.096 233.824C314.349 233.589 313.72 233.269 313.208 232.864L314.088 231.248C314.504 231.589 315 231.861 315.576 232.064C316.163 232.256 316.765 232.352 317.384 232.352C318.12 232.352 318.696 232.203 319.112 231.904C319.539 231.595 319.752 231.173 319.752 230.64C319.752 230.064 319.523 229.632 319.064 229.344C318.616 229.045 317.843 228.896 316.744 228.896H314.04L314.616 222.8H321.192V224.544H316.376L316.136 227.136H317.208ZM327.72 234.16C326.824 234.16 326.024 233.936 325.32 233.488C324.616 233.029 324.061 232.368 323.656 231.504C323.25 230.629 323.048 229.595 323.048 228.4C323.048 227.205 323.25 226.176 323.656 225.312C324.061 224.437 324.616 223.776 325.32 223.328C326.024 222.869 326.824 222.64 327.72 222.64C328.616 222.64 329.416 222.869 330.12 223.328C330.834 223.776 331.394 224.437 331.8 225.312C332.205 226.176 332.408 227.205 332.408 228.4C332.408 229.595 332.205 230.629 331.8 231.504C331.394 232.368 330.834 233.029 330.12 233.488C329.416 233.936 328.616 234.16 327.72 234.16ZM327.72 232.352C328.52 232.352 329.149 232.021 329.608 231.36C330.077 230.699 330.312 229.712 330.312 228.4C330.312 227.088 330.077 226.101 329.608 225.44C329.149 224.779 328.52 224.448 327.72 224.448C326.93 224.448 326.301 224.779 325.832 225.44C325.373 226.101 325.144 227.088 325.144 228.4C325.144 229.712 325.373 230.699 325.832 231.36C326.301 232.021 326.93 232.352 327.72 232.352ZM336.309 228.832C335.509 228.832 334.864 228.549 334.373 227.984C333.883 227.419 333.637 226.677 333.637 225.76C333.637 224.843 333.883 224.101 334.373 223.536C334.864 222.971 335.509 222.688 336.309 222.688C337.109 222.688 337.755 222.971 338.245 223.536C338.747 224.091 338.997 224.832 338.997 225.76C338.997 226.688 338.747 227.435 338.245 228C337.755 228.555 337.109 228.832 336.309 228.832ZM343.029 222.8H344.597L336.949 234H335.381L343.029 222.8ZM336.309 227.712C336.747 227.712 337.083 227.541 337.317 227.2C337.563 226.859 337.685 226.379 337.685 225.76C337.685 225.141 337.563 224.661 337.317 224.32C337.083 223.979 336.747 223.808 336.309 223.808C335.893 223.808 335.557 223.984 335.301 224.336C335.056 224.677 334.933 225.152 334.933 225.76C334.933 226.368 335.056 226.848 335.301 227.2C335.557 227.541 335.893 227.712 336.309 227.712ZM343.653 234.112C342.853 234.112 342.208 233.829 341.717 233.264C341.227 232.699 340.981 231.957 340.981 231.04C340.981 230.123 341.227 229.381 341.717 228.816C342.208 228.251 342.853 227.968 343.653 227.968C344.453 227.968 345.099 228.251 345.589 228.816C346.091 229.381 346.341 230.123 346.341 231.04C346.341 231.957 346.091 232.699 345.589 233.264C345.099 233.829 344.453 234.112 343.653 234.112ZM343.653 232.992C344.08 232.992 344.416 232.821 344.661 232.48C344.907 232.128 345.029 231.648 345.029 231.04C345.029 230.432 344.907 229.957 344.661 229.616C344.416 229.264 344.08 229.088 343.653 229.088C343.227 229.088 342.891 229.259 342.645 229.6C342.4 229.941 342.277 230.421 342.277 231.04C342.277 231.659 342.4 232.139 342.645 232.48C342.891 232.821 343.227 232.992 343.653 232.992Z" fill="white"/>
<path d="M115.472 297.424C116.507 297.552 117.296 297.904 117.84 298.48C118.384 299.056 118.656 299.776 118.656 300.64C118.656 301.291 118.491 301.883 118.16 302.416C117.829 302.949 117.328 303.376 116.656 303.696C115.995 304.005 115.184 304.16 114.224 304.16C113.424 304.16 112.651 304.048 111.904 303.824C111.168 303.589 110.539 303.269 110.016 302.864L110.912 301.248C111.317 301.589 111.808 301.861 112.384 302.064C112.971 302.256 113.573 302.352 114.192 302.352C114.928 302.352 115.504 302.203 115.92 301.904C116.347 301.595 116.56 301.179 116.56 300.656C116.56 300.133 116.357 299.728 115.952 299.44C115.557 299.141 114.949 298.992 114.128 298.992H113.104V297.568L115.648 294.544H110.56V292.8H118.192V294.192L115.472 297.424ZM124.689 304.16C123.793 304.16 122.993 303.936 122.289 303.488C121.585 303.029 121.03 302.368 120.625 301.504C120.219 300.629 120.017 299.595 120.017 298.4C120.017 297.205 120.219 296.176 120.625 295.312C121.03 294.437 121.585 293.776 122.289 293.328C122.993 292.869 123.793 292.64 124.689 292.64C125.585 292.64 126.385 292.869 127.089 293.328C127.803 293.776 128.363 294.437 128.769 295.312C129.174 296.176 129.377 297.205 129.377 298.4C129.377 299.595 129.174 300.629 128.769 301.504C128.363 302.368 127.803 303.029 127.089 303.488C126.385 303.936 125.585 304.16 124.689 304.16ZM124.689 302.352C125.489 302.352 126.118 302.021 126.577 301.36C127.046 300.699 127.281 299.712 127.281 298.4C127.281 297.088 127.046 296.101 126.577 295.44C126.118 294.779 125.489 294.448 124.689 294.448C123.899 294.448 123.27 294.779 122.801 295.44C122.342 296.101 122.113 297.088 122.113 298.4C122.113 299.712 122.342 300.699 122.801 301.36C123.27 302.021 123.899 302.352 124.689 302.352ZM133.278 298.832C132.478 298.832 131.833 298.549 131.342 297.984C130.851 297.419 130.606 296.677 130.606 295.76C130.606 294.843 130.851 294.101 131.342 293.536C131.833 292.971 132.478 292.688 133.278 292.688C134.078 292.688 134.723 292.971 135.214 293.536C135.715 294.091 135.966 294.832 135.966 295.76C135.966 296.688 135.715 297.435 135.214 298C134.723 298.555 134.078 298.832 133.278 298.832ZM139.998 292.8H141.566L133.918 304H132.35L139.998 292.8ZM133.278 297.712C133.715 297.712 134.051 297.541 134.286 297.2C134.531 296.859 134.654 296.379 134.654 295.76C134.654 295.141 134.531 294.661 134.286 294.32C134.051 293.979 133.715 293.808 133.278 293.808C132.862 293.808 132.526 293.984 132.27 294.336C132.025 294.677 131.902 295.152 131.902 295.76C131.902 296.368 132.025 296.848 132.27 297.2C132.526 297.541 132.862 297.712 133.278 297.712ZM140.622 304.112C139.822 304.112 139.177 303.829 138.686 303.264C138.195 302.699 137.95 301.957 137.95 301.04C137.95 300.123 138.195 299.381 138.686 298.816C139.177 298.251 139.822 297.968 140.622 297.968C141.422 297.968 142.067 298.251 142.558 298.816C143.059 299.381 143.31 300.123 143.31 301.04C143.31 301.957 143.059 302.699 142.558 303.264C142.067 303.829 141.422 304.112 140.622 304.112ZM140.622 302.992C141.049 302.992 141.385 302.821 141.63 302.48C141.875 302.128 141.998 301.648 141.998 301.04C141.998 300.432 141.875 299.957 141.63 299.616C141.385 299.264 141.049 299.088 140.622 299.088C140.195 299.088 139.859 299.259 139.614 299.6C139.369 299.941 139.246 300.421 139.246 301.04C139.246 301.659 139.369 302.139 139.614 302.48C139.859 302.821 140.195 302.992 140.622 302.992Z" fill="white"/>
<path d="M110.576 143.8V155H108.496V145.544H106.128V143.8H110.576ZM120.91 153.24V155H112.654V153.608L117.102 149.384C117.603 148.904 117.939 148.488 118.11 148.136C118.291 147.773 118.382 147.416 118.382 147.064C118.382 146.541 118.206 146.141 117.854 145.864C117.502 145.587 116.984 145.448 116.302 145.448C115.16 145.448 114.286 145.837 113.678 146.616L112.222 145.496C112.659 144.909 113.246 144.456 113.982 144.136C114.728 143.805 115.56 143.64 116.478 143.64C117.694 143.64 118.664 143.928 119.39 144.504C120.115 145.08 120.478 145.864 120.478 146.856C120.478 147.464 120.35 148.035 120.094 148.568C119.838 149.101 119.347 149.709 118.622 150.392L115.63 153.24H120.91ZM123.515 155.112C123.152 155.112 122.843 154.989 122.587 154.744C122.331 154.488 122.203 154.168 122.203 153.784C122.203 153.389 122.325 153.069 122.571 152.824C122.827 152.579 123.141 152.456 123.515 152.456C123.888 152.456 124.197 152.579 124.443 152.824C124.699 153.069 124.827 153.389 124.827 153.784C124.827 154.168 124.699 154.488 124.443 154.744C124.187 154.989 123.877 155.112 123.515 155.112ZM129.677 148.136C131.255 148.136 132.423 148.445 133.181 149.064C133.938 149.672 134.317 150.504 134.317 151.56C134.317 152.232 134.151 152.84 133.821 153.384C133.49 153.928 132.994 154.36 132.333 154.68C131.671 155 130.855 155.16 129.885 155.16C129.085 155.16 128.311 155.048 127.565 154.824C126.818 154.589 126.189 154.269 125.677 153.864L126.557 152.248C126.973 152.589 127.469 152.861 128.045 153.064C128.631 153.256 129.234 153.352 129.853 153.352C130.589 153.352 131.165 153.203 131.581 152.904C132.007 152.595 132.221 152.173 132.221 151.64C132.221 151.064 131.991 150.632 131.533 150.344C131.085 150.045 130.311 149.896 129.213 149.896H126.509L127.085 143.8H133.661V145.544H128.845L128.605 148.136H129.677ZM137.856 149.832C137.056 149.832 136.411 149.549 135.92 148.984C135.43 148.419 135.184 147.677 135.184 146.76C135.184 145.843 135.43 145.101 135.92 144.536C136.411 143.971 137.056 143.688 137.856 143.688C138.656 143.688 139.302 143.971 139.792 144.536C140.294 145.091 140.544 145.832 140.544 146.76C140.544 147.688 140.294 148.435 139.792 149C139.302 149.555 138.656 149.832 137.856 149.832ZM144.576 143.8H146.144L138.496 155H136.928L144.576 143.8ZM137.856 148.712C138.294 148.712 138.63 148.541 138.864 148.2C139.11 147.859 139.232 147.379 139.232 146.76C139.232 146.141 139.11 145.661 138.864 145.32C138.63 144.979 138.294 144.808 137.856 144.808C137.44 144.808 137.104 144.984 136.848 145.336C136.603 145.677 136.48 146.152 136.48 146.76C136.48 147.368 136.603 147.848 136.848 148.2C137.104 148.541 137.44 148.712 137.856 148.712ZM145.2 155.112C144.4 155.112 143.755 154.829 143.264 154.264C142.774 153.699 142.528 152.957 142.528 152.04C142.528 151.123 142.774 150.381 143.264 149.816C143.755 149.251 144.4 148.968 145.2 148.968C146 148.968 146.646 149.251 147.136 149.816C147.638 150.381 147.888 151.123 147.888 152.04C147.888 152.957 147.638 153.699 147.136 154.264C146.646 154.829 146 155.112 145.2 155.112ZM145.2 153.992C145.627 153.992 145.963 153.821 146.208 153.48C146.454 153.128 146.576 152.648 146.576 152.04C146.576 151.432 146.454 150.957 146.208 150.616C145.963 150.264 145.627 150.088 145.2 150.088C144.774 150.088 144.438 150.259 144.192 150.6C143.947 150.941 143.824 151.421 143.824 152.04C143.824 152.659 143.947 153.139 144.192 153.48C144.438 153.821 144.774 153.992 145.2 153.992Z" fill="#242E3B"/>
<path d="M182.152 92.8V94.192L177.8 104H175.576L179.784 94.56H175.384V96.464H173.448V92.8H182.152ZM183.89 104.112C183.527 104.112 183.218 103.989 182.962 103.744C182.706 103.488 182.578 103.168 182.578 102.784C182.578 102.389 182.7 102.069 182.946 101.824C183.202 101.579 183.516 101.456 183.89 101.456C184.263 101.456 184.572 101.579 184.818 101.824C185.074 102.069 185.202 102.389 185.202 102.784C185.202 103.168 185.074 103.488 184.818 103.744C184.562 103.989 184.252 104.112 183.89 104.112ZM190.052 97.136C191.63 97.136 192.798 97.4453 193.556 98.064C194.313 98.672 194.692 99.504 194.692 100.56C194.692 101.232 194.526 101.84 194.196 102.384C193.865 102.928 193.369 103.36 192.708 103.68C192.046 104 191.23 104.16 190.26 104.16C189.46 104.16 188.686 104.048 187.94 103.824C187.193 103.589 186.564 103.269 186.052 102.864L186.932 101.248C187.348 101.589 187.844 101.861 188.42 102.064C189.006 102.256 189.609 102.352 190.228 102.352C190.964 102.352 191.54 102.203 191.956 101.904C192.382 101.595 192.596 101.173 192.596 100.64C192.596 100.064 192.366 99.632 191.908 99.344C191.46 99.0453 190.686 98.896 189.588 98.896H186.884L187.46 92.8H194.036V94.544H189.22L188.98 97.136H190.052ZM198.231 98.832C197.431 98.832 196.786 98.5493 196.295 97.984C195.805 97.4187 195.559 96.6773 195.559 95.76C195.559 94.8427 195.805 94.1013 196.295 93.536C196.786 92.9707 197.431 92.688 198.231 92.688C199.031 92.688 199.677 92.9707 200.167 93.536C200.669 94.0907 200.919 94.832 200.919 95.76C200.919 96.688 200.669 97.4347 200.167 98C199.677 98.5547 199.031 98.832 198.231 98.832ZM204.951 92.8H206.519L198.871 104H197.303L204.951 92.8ZM198.231 97.712C198.669 97.712 199.005 97.5413 199.239 97.2C199.485 96.8587 199.607 96.3787 199.607 95.76C199.607 95.1413 199.485 94.6613 199.239 94.32C199.005 93.9787 198.669 93.808 198.231 93.808C197.815 93.808 197.479 93.984 197.223 94.336C196.978 94.6773 196.855 95.152 196.855 95.76C196.855 96.368 196.978 96.848 197.223 97.2C197.479 97.5413 197.815 97.712 198.231 97.712ZM205.575 104.112C204.775 104.112 204.13 103.829 203.639 103.264C203.149 102.699 202.903 101.957 202.903 101.04C202.903 100.123 203.149 99.3813 203.639 98.816C204.13 98.2507 204.775 97.968 205.575 97.968C206.375 97.968 207.021 98.2507 207.511 98.816C208.013 99.3813 208.263 100.123 208.263 101.04C208.263 101.957 208.013 102.699 207.511 103.264C207.021 103.829 206.375 104.112 205.575 104.112ZM205.575 102.992C206.002 102.992 206.338 102.821 206.583 102.48C206.829 102.128 206.951 101.648 206.951 101.04C206.951 100.432 206.829 99.9573 206.583 99.616C206.338 99.264 206.002 99.088 205.575 99.088C205.149 99.088 204.813 99.2587 204.567 99.6C204.322 99.9413 204.199 100.421 204.199 101.04C204.199 101.659 204.322 102.139 204.567 102.48C204.813 102.821 205.149 102.992 205.575 102.992Z" fill="#242E3B"/>
</svg>
