<?xml version="1.0" encoding="UTF-8"?>
<svg width="410px" height="402px" viewBox="0 0 410 402" version="1.1" xmlns="http://www.w3.org/2000/svg" xmlns:xlink="http://www.w3.org/1999/xlink">
    <title>Group</title>
    <defs>
        <path d="M185.959438,0 L185.959438,200 L0.29424025,126.375062 C30.4471014,50.0986875 104.050047,0 185.959438,0 Z" id="path-1"></path>
        <path d="M14.6468144,0.1250625 L200.312012,73.75 L187.773479,273.355346 C166.860468,272.037553 146.284867,267.431175 126.801934,259.7053 C24.2619033,219.043381 -25.951663,102.825375 14.6468144,0.1250625 Z" id="path-3"></path>
        <path d="M13.1045242,0 L166.966739,127.484812 C126.629352,176.320541 65.5961049,203.086777 2.47924146,199.716702 L0.56599064,199.605346 L13.1045242,0 Z" id="path-5"></path>
        <path d="M199.293978,0.566875 C202.451167,50.828185 186.559982,100.412613 154.828617,139.430691 L153.862215,140.609813 L0,13.125 L199.293978,0.566875 Z" id="path-7"></path>
        <path d="M168.602122,0.334625 C186.444609,28.4938137 196.970077,60.6701261 199.228085,93.9335623 L199.293978,94.941875 L0,107.5 L168.602122,0.334625 Z" id="path-9"></path>
        <path d="M127.285928,0.272375 C143.18312,13.4442519 156.9447,29.0028365 168.081985,46.3931162 L168.602122,47.209625 L0,154.375 L127.285928,0.272375 Z" id="path-11"></path>
        <path d="M73.510078,0.2946875 C92.693212,7.90170288 110.581585,18.4396608 126.539326,31.5318111 L127.285928,32.147375 L0,186.25 L73.510078,0.2946875 Z" id="path-13"></path>
        <path d="M0,0 C24.8720169,0 49.5224456,4.65378602 72.6835317,13.7190528 L73.510078,14.0446875 L0,200 L0,0 Z" id="path-15"></path>
    </defs>
    <g id="Page-1" stroke="none" stroke-width="1" fill="none" fill-rule="evenodd">
        <g id="Group" transform="translate(0.000000, 0.531100)">
            <g id="Group-53">
                <g id="Group-6" transform="translate(14.352574, 0.000000)">
                    <path d="M185.959438,200 L185.959438,0 C104.050047,0 30.4471014,50.0986875 0.29424025,126.375062 L185.959438,200 Z" id="Fill-1" fill="#2F353E"></path>
                    <g id="Group-5">
                        <mask id="mask-2" fill="white">
                            <use xlink:href="#path-1"></use>
                        </mask>
                        <g id="Clip-4"></g>
                        <path d="M185.959413,199.999992 L185.959413,-8.00000002e-06 C104.050021,-8.00000002e-06 30.4471008,50.0986563 0.294245866,126.375063 L185.959413,199.999992 Z" id="Stroke-3" stroke="#FFFFFF" stroke-width="4" mask="url(#mask-2)"></path>
                    </g>
                </g>
                <g id="Group-12" transform="translate(0.000000, 126.250000)">
                    <path d="M200.312012,73.75 L14.6468144,0.1250625 C-25.951663,102.825375 24.2619033,219.043381 126.801934,259.7053 C146.284867,267.431175 166.860468,272.037553 187.773479,273.355346 L200.312012,73.75 Z" id="Fill-7" fill="#2A5BBA"></path>
                    <g id="Group-11">
                        <mask id="mask-4" fill="white">
                            <use xlink:href="#path-3"></use>
                        </mask>
                        <g id="Clip-10"></g>
                        <path d="M200.311987,73.75 L14.64682,0.1250625 C-25.9516637,102.825375 24.2619027,219.043375 126.801971,259.705312 C146.284842,267.431187 166.860442,272.037563 187.773516,273.355313 L200.311987,73.75 Z" id="Stroke-9" stroke="#FFFFFF" stroke-width="4" mask="url(#mask-4)"></path>
                    </g>
                </g>
                <g id="Group-18" transform="translate(187.207488, 200.000000)">
                    <path d="M13.1045242,0 L0.56599064,199.605346 C64.3609984,203.625258 126.221903,176.813831 166.966739,127.484813 L13.1045242,0 Z" id="Fill-13" fill="#3D8887"></path>
                    <g id="Group-17">
                        <mask id="mask-6" fill="white">
                            <use xlink:href="#path-5"></use>
                        </mask>
                        <g id="Clip-16"></g>
                        <path d="M13.1044986,0 L0.566027457,199.605313 C64.3609729,203.62525 126.221878,176.813813 166.966776,127.484813 L13.1044986,0 Z" id="Stroke-15" stroke="#FFFFFF" stroke-width="4" mask="url(#mask-6)"></path>
                    </g>
                </g>
                <g id="Group-24" transform="translate(200.312012, 186.875000)">
                    <path d="M0,13.125 L153.862215,140.609813 C186.237005,101.41425 202.483058,51.335875 199.293978,0.566875 L0,13.125 Z" id="Fill-19" fill="#4A9DEC"></path>
                    <g id="Group-23">
                        <mask id="mask-8" fill="white">
                            <use xlink:href="#path-7"></use>
                        </mask>
                        <g id="Clip-22"></g>
                        <path d="M-2.55850234e-05,13.125 L153.862252,140.609813 C186.237041,101.41425 202.483095,51.335875 199.293953,0.566875 L-2.55850234e-05,13.125 Z" id="Stroke-21" stroke="#FFFFFF" stroke-width="4" mask="url(#mask-8)"></path>
                    </g>
                </g>
                <g id="Group-31" transform="translate(200.312012, 92.500000)">
                    <path d="M0,107.5 L199.293978,94.941875 C197.181966,61.3205625 186.624836,28.77825 168.602122,0.334625 L0,107.5 Z" id="Fill-26" fill="#8AC1DB"></path>
                    <g id="Group-30">
                        <mask id="mask-10" fill="white">
                            <use xlink:href="#path-9"></use>
                        </mask>
                        <g id="Clip-29"></g>
                        <path d="M-2.55850234e-05,107.5 L199.293953,94.941875 C197.182002,61.3205 186.624811,28.7781875 168.602159,0.334625 L-2.55850234e-05,107.5 Z" id="Stroke-28" stroke="#FFFFFF" stroke-width="4" mask="url(#mask-10)"></path>
                    </g>
                </g>
                <g id="Group-38" transform="translate(200.312012, 45.625000)">
                    <path d="M0,154.375 L168.602122,47.209625 C157.374228,29.489625 143.431513,13.6500625 127.285928,0.272375 L0,154.375 Z" id="Fill-33" fill="#86E75A"></path>
                    <g id="Group-37">
                        <mask id="mask-12" fill="white">
                            <use xlink:href="#path-11"></use>
                        </mask>
                        <g id="Clip-36"></g>
                        <path d="M-2.55850234e-05,154.375 L168.602159,47.209625 C157.374202,29.489625 143.43155,13.6500375 127.285903,0.27234375 L-2.55850234e-05,154.375 Z" id="Stroke-35" stroke="#FFFFFF" stroke-width="4" mask="url(#mask-12)"></path>
                    </g>
                </g>
                <g id="Group-45" transform="translate(200.312012, 13.750000)">
                    <path d="M0,186.25 L127.285928,32.147375 C111.140281,18.7696875 92.9929485,8.0205625 73.510078,0.2946875 L0,186.25 Z" id="Fill-40" fill="#DDFC67"></path>
                    <g id="Group-44">
                        <mask id="mask-14" fill="white">
                            <use xlink:href="#path-13"></use>
                        </mask>
                        <g id="Clip-43"></g>
                        <path d="M-2.55850234e-05,186.25 L127.285903,32.1473437 C111.140255,18.76965 92.9929229,8.02056875 73.5100524,0.29469375 L-2.55850234e-05,186.25 Z" id="Stroke-42" stroke="#FFFFFF" stroke-width="4" mask="url(#mask-14)"></path>
                    </g>
                </g>
                <g id="Group-52" transform="translate(200.312012, 0.000000)">
                    <path d="M0,200 L73.510078,14.0446875 C50.1093292,4.76525 25.1681123,0 0,0 L0,200 Z" id="Fill-47" fill="#E9E9DE"></path>
                    <g id="Group-51">
                        <mask id="mask-16" fill="white">
                            <use xlink:href="#path-15"></use>
                        </mask>
                        <g id="Clip-50"></g>
                        <path d="M-2.55850234e-05,199.999992 L73.5100524,14.0446937 C50.109366,4.76522375 25.1680867,-8.00000002e-06 -2.55850234e-05,-8.00000002e-06 L-2.55850234e-05,199.999992 Z" id="Stroke-49" stroke="#FFFFFF" stroke-width="4" mask="url(#mask-16)"></path>
                    </g>
                </g>
            </g>
            <g id="Group-55" transform="translate(83.107644, 63.500000)" fill="#FFFFFF" font-family="HelveticaNeue, Helvetica Neue" font-size="36" font-weight="normal">
                <text id="19%">
                    <tspan x="0.140904836" y="34.3353734">19%</tspan>
                </text>
            </g>
            <g id="Group-57" transform="translate(56.313573, 255.125000)" fill="#FFFFFF" font-family="HelveticaNeue, Helvetica Neue" font-size="36" font-weight="normal">
                <text id="30%">
                    <tspan x="0.842194961" y="34.6307484">30%</tspan>
                </text>
            </g>
            <g id="Group-59" transform="translate(221.653666, 309.500000)" fill="#FFFFFF" font-family="HelveticaNeue, Helvetica Neue" font-size="36" font-weight="normal">
                <text id="15%">
                    <tspan x="0.296871451" y="34.5539984">15%</tspan>
                </text>
            </g>
            <g id="Group-61" transform="translate(302.271451, 223.375000)" fill="#FFFFFF" font-family="HelveticaNeue, Helvetica Neue" font-size="36" font-weight="normal">
                <text id="12%">
                    <tspan x="0.652613105" y="34.1048109">12%</tspan>
                </text>
            </g>
            <g id="Group-63" transform="translate(336.703588, 140.750000)" fill="#000000" font-family="HelveticaNeue, Helvetica Neue" font-size="16" font-weight="normal">
                <text id="8%">
                    <tspan x="0.0833716069" y="15.0587523">8%</tspan>
                </text>
            </g>
            <g id="Group-65" transform="translate(310.299532, 83.500000)" fill="#000000" font-family="HelveticaNeue, Helvetica Neue" font-size="16" font-weight="normal">
                <text id="5%">
                    <tspan x="0.080149766" y="15.0088773">5%</tspan>
                </text>
            </g>
            <g id="Group-67" transform="translate(272.115445, 55.500000)" fill="#000000" font-family="HelveticaNeue, Helvetica Neue" font-size="16" font-weight="normal">
                <text id="5%">
                    <tspan x="0.658720749" y="15.0935648">5%</tspan>
                </text>
            </g>
            <g id="Group-69" transform="translate(215.574103, 35.875000)" fill="#000000" font-family="HelveticaNeue, Helvetica Neue" font-size="16" font-weight="normal">
                <text id="6%">
                    <tspan x="0.309566303" y="15.0298773">6%</tspan>
                </text>
            </g>
        </g>
    </g>
</svg>