<svg width="174" height="174" viewBox="0 0 174 174" fill="none" xmlns="http://www.w3.org/2000/svg">
<path d="M61.1985 0.475323C45.9517 2.34058 33.1171 8.52779 22.4671 19.1279C12.7273 28.8182 6.35552 41.3746 4.12539 55.1593C3.53372 58.7534 3.53372 59.4813 4.07988 60.5276C4.80808 61.938 5.5818 62.3474 7.44783 62.3474C9.4959 62.3474 10.3151 60.9371 11.1799 55.8417C13.41 43.1944 18.553 33.1401 27.2914 24.3143C38.4876 13.0317 53.6433 6.98099 69.8004 7.34494C74.9433 7.48143 74.9889 7.48143 76.0357 6.25308C76.6273 5.52518 77.128 4.66079 77.128 4.29683C77.128 3.20497 75.8536 1.06675 75.0344 0.748287C73.669 0.202358 64.7485 0.065876 61.1985 0.475323Z" fill="black"/>
<path d="M120.366 0.475166C99.8397 3.25031 83.6826 18.0814 79.4044 38.0079C78.9038 40.2371 78.4941 43.7856 78.4941 45.8329C78.4941 49.1085 78.6307 49.6999 79.4954 50.5188C80.8153 51.7471 83.0909 51.7016 84.2743 50.3823C85.0025 49.6089 85.2756 48.4715 85.5486 45.2869C86.4134 34.4593 91.3288 24.3596 99.0204 17.7175C102.707 14.5329 103.89 13.714 107.941 11.6667C120.776 5.11558 136.705 6.11645 148.675 14.1689C154.637 18.2179 160.326 24.8146 163.011 30.8198C174.708 57.1609 157.504 86.2317 128.786 88.5064C125.6 88.7794 124.462 89.0524 123.688 89.7803C122.323 91.0086 122.323 93.2378 123.643 94.6027C124.553 95.649 124.781 95.649 129.651 95.4215C135.886 95.1031 140.71 93.8747 146.172 91.2361C151.952 88.4609 155.456 86.0497 159.78 81.7278C171.295 70.2633 176.119 54.2948 172.842 38.2808C169.156 19.9012 153.772 4.66064 135.476 1.11209C131.061 0.29319 124.052 -0.0252686 120.366 0.475166Z" fill="black"/>
<path d="M123.642 17.8995C123.095 18.4909 122.64 19.4918 122.64 20.1287C122.64 22.1305 122.185 22.7674 119.727 23.9047C116.815 25.2696 114.266 27.7717 112.81 30.5924C111.126 33.9135 111.262 38.3719 113.174 41.9659C115.131 45.651 117.861 47.8802 123.915 50.8373C131.06 54.2949 133.563 56.6606 133.563 59.9816C133.563 62.9842 129.422 66.4418 125.826 66.4418C123.687 66.3963 120.683 64.986 119.636 63.4847C117.27 60.1636 116.633 59.6177 115.176 59.6177C112.855 59.6177 111.717 60.7095 111.717 62.9842C111.717 66.2598 115.404 70.5818 119.818 72.447C122.003 73.3569 122.231 73.5844 122.504 75.2677C122.822 77.4059 124.415 79.1802 125.963 79.1802C127.692 79.1802 129.467 77.5424 129.467 75.9501C129.467 73.9029 130.15 72.9475 132.061 72.3106C134.474 71.5372 138.297 67.7611 139.526 64.9405C141.801 59.6632 140.39 53.385 136.067 49.8364C134.929 48.9265 131.333 46.7428 128.011 45.014C124.688 43.2398 121.457 41.3745 120.911 40.8286C118.726 38.7813 117.998 36.0972 119.045 34.0044C122.003 28.2722 130.286 28.0902 133.563 33.7315C135.475 36.9616 138.752 37.371 140.208 34.5504C140.845 33.231 140.845 32.9581 140.208 31.1838C139.07 28.2267 136.613 25.7245 133.29 24.0867C130.195 22.5399 129.467 21.7665 129.467 19.9012C129.467 17.2626 125.553 15.8978 123.642 17.8995Z" fill="black"/>
<path d="M49.5929 56.3877C35.848 58.9808 24.6518 65.259 15.4127 75.6317C4.62621 87.7332 -0.835332 105.294 1.30377 121.308C3.12428 135.093 8.58582 146.284 18.189 155.838C38.3967 175.946 68.7993 178.858 92.8301 162.981C97.0627 160.16 104.117 153.29 107.349 148.832C118.408 133.409 121.503 113.301 115.495 95.5582C112.628 87.0962 107.758 79.3167 101.25 72.8111C93.0576 64.6221 83.0903 59.1628 71.6666 56.6606C66.2961 55.4778 55.1909 55.3413 49.5929 56.3877ZM68.6172 63.4848C87.141 66.7603 102.843 80.2721 108.714 98.0603C116.815 122.627 105.483 149.514 82.3621 160.66C68.3897 167.393 53.1884 167.712 38.9429 161.616C27.1095 156.52 16.9602 146.148 12.0448 134.228C0.621078 106.568 14.5935 75.5407 42.9935 65.441C50.0935 62.9388 60.698 62.1199 68.6172 63.4848Z" fill="black"/>
<path d="M29.5225 95.9222C28.066 97.105 24.7436 99.6982 22.1494 101.654C19.5551 103.611 17.5526 105.294 17.6436 105.385C17.7801 105.521 19.5551 105.385 21.6487 105.112C23.7423 104.885 26.3821 104.657 27.5654 104.657C28.7943 104.657 29.8866 104.384 30.2051 104.02C30.4782 103.702 31.0244 101.791 31.343 99.8347C31.7071 97.8329 32.1167 95.6947 32.2987 94.9668C32.4808 94.2844 32.5263 93.7384 32.4353 93.7384C32.3442 93.7384 31.0244 94.7393 29.5225 95.9222Z" fill="black"/>
<path d="M85.9568 94.6938C86.3664 96.5136 87.2311 101.154 87.4587 102.746C87.6407 103.793 87.9593 104.248 88.6875 104.384C90.417 104.703 100.521 105.521 100.703 105.385C100.839 105.248 96.0151 101.427 87.7773 95.1488C85.8202 93.693 85.7292 93.6475 85.9568 94.6938Z" fill="black"/>
<path d="M48.0009 106.659C47.8644 106.75 44.724 107.068 40.9464 107.341C37.2144 107.614 31.9804 108.023 29.3406 108.296C26.7009 108.524 23.1509 108.842 21.3759 109.024C17.8714 109.343 18.0535 109.57 22.7413 110.844C24.0156 111.163 26.1547 111.754 27.5201 112.118C28.8855 112.482 31.5708 113.21 33.4368 113.71C35.3028 114.256 38.0791 114.984 39.581 115.393C45.6797 117.031 44.6785 115.894 48.5015 126.039C50.3221 131.043 52.006 135.138 52.2336 135.138C52.4156 135.138 52.5977 132.408 52.6432 129.087C52.6887 125.812 52.7797 122.445 52.8253 121.717C52.8708 120.944 52.9618 117.259 53.0073 113.528L53.1438 106.704L50.6862 106.568C49.3208 106.477 48.0919 106.522 48.0009 106.659Z" fill="black"/>
<path d="M65.2494 106.977C64.9763 112.846 65.9321 136.093 66.3872 134.911C66.5693 134.41 67.0244 133.364 67.3885 132.545C67.7526 131.771 68.0257 130.862 68.0257 130.498C68.0257 130.134 68.2077 129.679 68.3898 129.406C68.6173 129.178 69.4366 127.131 70.2558 124.902C73.2141 116.713 73.0776 116.986 75.0802 116.44C76.0814 116.167 77.8109 115.667 78.9487 115.348C80.0866 115.03 81.8161 114.575 82.8173 114.302C83.8186 114.029 85.8212 113.483 87.2321 113.073C88.6885 112.709 90.9641 112.072 92.2385 111.709C96.9718 110.435 99.8846 109.525 99.7481 109.388C99.5661 109.206 96.7898 108.933 80.5417 107.614C76.0359 107.25 70.7564 106.795 68.8449 106.613C65.9776 106.386 65.2949 106.477 65.2494 106.977Z" fill="black"/>
<path d="M168.836 97.4235C167.061 98.4243 166.788 99.2432 166.788 103.702C166.743 124.447 156.457 143.737 139.481 154.837C133.245 158.886 126.737 161.434 119.409 162.662C113.493 163.618 113.22 163.709 112.446 164.527C111.445 165.483 111.49 168.485 112.537 169.35C113.857 170.533 114.676 170.578 119.318 169.941C142.576 166.666 162.738 149.332 170.384 126.039C172.25 120.307 173.024 116.44 173.661 109.388C174.252 103.019 173.979 99.7437 172.796 98.3334C171.84 97.196 170.02 96.7866 168.836 97.4235Z" fill="black"/>
</svg>
