<?xml version="1.0" standalone="no"?>
<!DOCTYPE svg PUBLIC "-//W3C//DTD SVG 20010904//EN"
 "http://www.w3.org/TR/2001/REC-SVG-20010904/DTD/svg10.dtd">
<svg version="1.0" xmlns="http://www.w3.org/2000/svg"
 width="1144.000000pt" height="1144.000000pt" viewBox="0 0 1144.000000 1144.000000"
 preserveAspectRatio="xMidYMid meet">
<metadata>
Created by potrace 1.14, written by Peter Selinger 2001-2017
</metadata>
<g transform="translate(0.000000,1144.000000) scale(0.100000,-0.100000)"
fill="#000000" stroke="none">
<path d="M9280 8643 c0 -4 5 -26 10 -48 5 -22 11 -56 15 -75 3 -19 11 -60 17
-90 6 -30 12 -62 14 -70 1 -8 4 -25 7 -36 3 -12 8 -38 11 -59 4 -20 8 -40 11
-44 2 -4 6 -25 9 -47 3 -21 10 -64 16 -94 7 -30 13 -64 15 -75 2 -11 15 -76
28 -145 14 -69 28 -136 31 -150 2 -14 16 -83 31 -155 14 -71 28 -146 31 -165
2 -19 6 -42 9 -50 2 -8 7 -28 10 -45 2 -16 8 -41 11 -55 4 -14 9 -42 11 -63 3
-20 8 -39 12 -41 3 -2 45 -7 91 -10 47 -3 101 -7 120 -10 19 -3 71 -8 115 -11
44 -4 107 -8 140 -11 33 -3 85 -6 115 -8 53 -4 130 -11 237 -22 28 -2 82 -7
120 -9 120 -8 207 -16 233 -20 14 -2 70 -7 125 -10 55 -4 113 -8 130 -10 16
-2 66 -6 110 -10 44 -3 98 -8 120 -10 22 -2 76 -7 120 -11 l80 -6 -25 21 c-14
11 -29 24 -35 28 -5 5 -62 48 -125 97 -63 50 -119 93 -125 98 -5 4 -66 51
-135 104 -69 52 -134 103 -145 112 -11 9 -38 30 -60 46 -22 17 -42 33 -45 36
-3 3 -21 17 -40 30 -19 13 -40 29 -46 35 -6 5 -23 19 -38 30 -16 11 -33 25
-40 30 -6 6 -69 55 -141 110 -71 55 -137 105 -145 112 -8 7 -69 54 -135 105
-132 101 -139 107 -160 126 -7 6 -18 12 -24 12 -6 0 -11 4 -11 9 0 5 -25 26
-55 46 -30 21 -55 42 -55 46 0 4 -8 10 -17 13 -10 3 -32 19 -50 36 -18 16 -34
30 -38 30 -3 0 -29 19 -58 43 -29 23 -68 54 -87 69 -192 148 -241 186 -265
203 -15 11 -33 26 -41 33 -8 7 -14 10 -14 5z"/>
<path d="M2120 8619 c-14 -11 -35 -27 -48 -37 -12 -9 -28 -22 -35 -27 -6 -6
-47 -37 -90 -69 -44 -33 -89 -68 -100 -78 -12 -10 -78 -61 -147 -114 -69 -52
-137 -105 -151 -117 -15 -12 -39 -31 -55 -42 -15 -11 -32 -25 -38 -30 -6 -6
-29 -24 -51 -40 -22 -17 -44 -33 -50 -37 -26 -20 -102 -79 -115 -91 -8 -7 -44
-35 -80 -62 -36 -27 -67 -52 -70 -55 -3 -3 -24 -18 -47 -34 -24 -16 -43 -33
-43 -37 0 -5 -4 -9 -10 -9 -5 0 -18 -7 -27 -16 -10 -9 -97 -76 -193 -151 -96
-74 -186 -143 -200 -154 -14 -11 -83 -65 -155 -120 -72 -55 -137 -105 -145
-112 -24 -18 -144 -111 -155 -119 -5 -4 -26 -20 -45 -36 -19 -16 -44 -34 -55
-40 -20 -11 37 -10 195 3 30 3 84 8 120 11 36 2 85 7 110 9 116 10 195 17 248
21 31 2 77 6 102 8 25 2 81 7 125 10 44 4 100 8 125 11 25 2 77 6 115 10 117
9 198 16 245 20 25 3 83 8 130 11 47 3 103 8 125 9 22 2 76 7 120 10 44 4 82
9 84 11 2 2 5 14 7 26 2 13 11 57 20 98 16 78 22 110 29 148 2 12 6 30 9 40 3
9 7 35 11 57 3 22 7 47 10 55 4 15 10 46 21 110 8 47 12 65 14 65 1 0 3 9 5
20 1 11 5 31 8 45 7 33 37 188 43 220 5 27 12 61 20 100 2 14 7 36 9 50 2 14
7 36 10 50 8 39 15 72 21 110 3 19 8 38 9 41 2 3 7 28 11 55 3 27 10 56 15 65
4 9 7 18 4 20 -2 2 3 30 10 62 7 31 10 59 7 61 -4 2 -18 -5 -32 -15z"/>
<path d="M4879 6906 c-2 -3 -45 -8 -94 -11 -50 -4 -106 -8 -125 -10 -31 -3
-77 -7 -230 -20 -96 -8 -198 -16 -255 -20 -33 -2 -60 -5 -60 -6 0 0 -16 -2
-35 -4 -19 -1 -75 -5 -125 -10 -49 -4 -108 -9 -130 -10 -22 -2 -76 -6 -120
-10 -90 -8 -125 -11 -240 -20 -44 -4 -96 -8 -115 -10 -19 -2 -73 -6 -120 -9
-47 -4 -101 -9 -120 -11 -19 -2 -69 -7 -110 -10 -70 -5 -109 -8 -250 -20 -30
-3 -89 -8 -130 -11 -41 -3 -91 -7 -110 -9 -32 -3 -137 -11 -265 -20 -27 -2
-50 -5 -50 -5 0 -1 -20 -3 -45 -5 -25 -2 -77 -6 -115 -9 -87 -8 -170 -15 -255
-21 -36 -3 -85 -7 -110 -9 -25 -3 -76 -8 -115 -11 -153 -12 -192 -15 -240 -20
-27 -3 -88 -7 -135 -10 -47 -3 -96 -8 -110 -10 -33 -6 -201 -17 -267 -19 -29
0 -53 -3 -53 -6 0 -3 -17 -5 -38 -6 -20 0 -71 -4 -112 -8 -41 -4 -102 -9 -135
-11 -33 -3 -82 -7 -110 -9 -138 -13 -247 -22 -320 -25 -29 -2 -29 -2 10 -15
54 -18 195 -57 223 -62 13 -3 42 -11 65 -18 23 -7 65 -19 92 -26 28 -6 61 -16
75 -21 14 -5 36 -11 50 -14 14 -3 68 -17 120 -31 52 -14 127 -35 165 -45 39
-11 93 -26 120 -34 61 -17 137 -38 150 -40 6 -2 55 -15 110 -30 55 -15 105
-28 110 -30 6 -1 17 -5 25 -8 8 -3 26 -8 40 -10 14 -3 50 -13 80 -22 30 -9 62
-17 70 -19 8 -2 116 -32 240 -66 124 -34 257 -70 295 -80 95 -26 169 -46 235
-65 30 -9 64 -18 75 -20 43 -10 362 -98 418 -115 15 -5 27 -7 27 -4 0 2 13 -2
30 -11 16 -8 31 -15 32 -14 7 2 84 -14 98 -21 8 -5 29 -10 47 -13 17 -3 36 -8
41 -11 4 -3 19 -7 33 -10 13 -3 83 -21 154 -41 72 -20 139 -38 150 -41 11 -2
43 -10 70 -19 101 -30 191 -54 215 -59 67 -12 75 -21 109 -113 18 -48 43 -115
56 -148 12 -33 37 -98 54 -145 17 -47 35 -94 40 -105 5 -11 19 -47 31 -80 12
-33 26 -69 30 -80 5 -11 21 -54 36 -95 14 -41 32 -88 39 -105 7 -16 31 -82 54
-145 24 -63 48 -128 56 -145 7 -16 16 -41 20 -55 6 -24 11 -38 35 -92 5 -13
23 -61 40 -108 18 -47 42 -112 55 -145 34 -84 227 -598 285 -760 10 -27 24
-63 31 -80 7 -16 13 -32 14 -35 1 -3 5 -12 8 -20 3 -8 16 -42 28 -75 12 -33
26 -71 32 -85 6 -14 11 -31 13 -39 1 -7 7 -18 12 -23 6 -6 10 26 11 84 7 275
9 337 15 346 3 6 2 13 -4 17 -6 4 -8 11 -5 16 3 5 8 93 10 196 3 104 7 253 9
333 9 259 19 613 20 700 1 47 5 90 9 97 4 6 4 14 -1 17 -5 3 -7 20 -5 38 1 18
5 121 8 228 3 107 8 263 10 345 2 83 7 245 10 360 3 116 8 269 10 340 2 72 7
216 9 320 3 105 8 285 12 400 3 116 6 219 6 229 -1 20 -15 40 -23 32z"/>
<path d="M6538 6903 c-2 -5 -3 -24 -2 -43 1 -19 5 -152 9 -295 4 -143 9 -309
11 -370 1 -60 5 -195 8 -300 3 -104 8 -271 11 -370 3 -99 8 -259 10 -355 8
-279 15 -522 20 -700 3 -91 7 -253 10 -360 2 -107 7 -262 10 -345 3 -82 8
-244 10 -360 3 -115 8 -259 10 -320 2 -60 4 -153 5 -205 2 -110 -1 -114 72 85
22 61 45 121 51 135 6 14 11 27 12 30 1 3 4 12 8 20 3 8 13 38 23 65 9 28 21
54 26 60 4 5 8 17 8 27 0 10 5 26 10 36 9 15 24 54 97 252 13 36 26 72 30 80
3 8 7 17 8 20 1 3 6 16 12 30 6 14 20 54 33 90 12 36 28 79 35 95 31 72 40 98
50 135 1 3 7 19 14 35 7 17 21 53 31 80 10 28 31 82 45 120 15 39 35 93 46
120 10 28 57 151 104 275 47 124 87 230 88 235 3 12 25 71 38 100 5 11 18 47
29 80 12 33 25 69 30 80 33 81 53 131 55 140 1 5 7 24 14 40 6 17 19 50 28 73
16 41 35 57 83 67 8 2 76 20 150 40 74 20 142 38 150 40 8 2 40 11 70 20 30 9
63 18 72 20 10 2 62 16 115 31 54 14 105 28 113 29 8 2 15 4 15 5 0 1 7 3 15
5 8 1 74 19 145 39 72 20 140 39 150 41 17 4 249 67 295 80 49 14 136 38 145
40 6 1 17 5 25 8 8 3 29 9 45 13 17 4 35 8 40 10 6 2 19 5 30 8 11 3 47 12 80
21 33 9 67 18 75 20 8 2 65 18 125 35 61 17 117 32 125 34 8 2 42 11 75 20 33
9 85 24 115 32 30 8 76 21 103 29 26 8 47 12 47 9 0 -3 8 0 18 5 11 6 30 12
43 15 13 3 67 17 119 31 52 15 102 28 110 30 46 12 617 168 630 173 8 3 20 6
25 7 6 2 46 13 90 25 44 12 127 34 185 50 58 15 116 32 130 38 l25 11 -25 1
c-14 1 -50 4 -80 5 -30 2 -82 6 -115 10 -33 4 -82 8 -110 10 -93 7 -190 15
-250 21 -70 6 -160 13 -230 19 -272 21 -328 26 -370 31 -22 3 -69 7 -105 9
-36 3 -90 7 -120 10 -30 2 -84 7 -120 10 -92 8 -175 15 -245 20 -33 2 -87 6
-120 9 -33 3 -91 8 -130 12 -38 3 -90 8 -115 10 -25 2 -81 7 -125 9 -44 3 -98
7 -120 9 -62 8 -130 14 -360 32 -33 2 -85 6 -115 9 -30 2 -55 4 -55 5 0 1 -31
3 -70 6 -38 2 -90 6 -115 9 -25 3 -76 8 -115 10 -38 3 -92 7 -120 9 -27 3 -86
8 -130 12 -81 6 -141 11 -230 19 -27 2 -84 6 -125 9 -41 3 -94 8 -117 11 -24
2 -80 7 -125 10 -46 3 -94 8 -108 10 -14 2 -68 6 -120 10 -52 3 -106 7 -120
10 -14 2 -65 7 -115 10 -49 4 -106 8 -125 10 -19 1 -77 6 -129 9 -52 4 -97 9
-102 11 -4 3 -9 2 -11 -2z"/>
</g>
</svg>
