<?xml version="1.0" encoding="UTF-8"?>
<svg width="100px" height="104px" viewBox="0 0 100 104" version="1.1" xmlns="http://www.w3.org/2000/svg" xmlns:xlink="http://www.w3.org/1999/xlink">
    <title>bunny-color</title>
    <g id="Page-1" stroke="none" stroke-width="1" fill="none" fill-rule="evenodd">
        <g id="bunny-color" fill="#171C22">
            <path d="M68.6659486,0 C73.2191036,0 77.004162,1.77242011 79.5181227,5.08098023 C81.8977056,8.21251618 82.7803108,12.2426098 82.7803108,16.2555278 C82.7803108,19.6458816 81.73091,24.2724617 80.6605944,28.215787 C79.8611256,31.162664 78.9675402,34.0158081 78.2512078,36.1951754 C81.4187564,37.6468825 85.9682513,40.1706526 90.0905611,44.1112549 C95.3506369,49.1396295 100,56.5785093 100,66.8948829 C100,77.6018972 95.3407023,87.0642022 86.5580491,93.731802 C77.8789241,100.320331 65.458139,103.98848 50.0384833,104 L49.9613076,104 C34.541495,103.98848 22.120553,100.320331 13.4418986,93.731802 C4.65919311,87.0642022 0,77.6018972 0,66.8948829 C0,56.5785093 4.64899713,49.1396295 9.90928199,44.1112549 C14.0316964,40.1706526 18.5808776,37.6468825 21.7485307,36.1951754 C21.0321984,34.0158081 20.1385084,31.162664 19.338935,28.215787 C18.2690377,24.2724617 17.2194278,19.6458816 17.2194278,16.2555278 C17.2194278,12.2426098 18.1019806,8.21251618 20.4815636,5.08098023 C22.9956811,1.77242011 26.7804781,0 31.3337377,0 C34.8922887,0 37.9134859,1.30861007 40.2787422,3.56609505 C42.5396336,5.72393521 44.0443499,8.58959453 45.0832932,11.5768971 C46.9089474,16.8260937 47.6197896,23.4208542 47.8191601,30.0021047 L52.1803694,30.0021047 C52.3801058,23.4208542 53.0906866,16.8260937 54.9165499,11.5768971 C55.9554933,8.58959453 57.4603141,5.72393521 59.7212055,3.56609505 C62.0861481,1.30861007 65.107293,0 68.6659486,0 Z M32.6039989,53.9969286 C29.6418861,53.9969286 27.2405517,56.6471071 27.2405517,61.7359106 C27.2405517,66.8247141 29.6418861,69.4748926 32.6039989,69.4748926 C35.566164,69.4748926 37.9674461,66.8247141 37.9674461,61.7359106 C37.9674461,56.6471071 35.566164,53.9969286 32.6039989,53.9969286 Z M67.466484,53.9969286 C64.5039006,53.9969286 62.10288,56.6471071 62.10288,61.7359106 C62.10288,66.8247141 64.5039006,69.4748926 67.466484,69.4748926 C70.4285445,69.4748926 72.8295652,66.8247141 72.8295652,61.7359106 C72.8295652,56.6471071 70.4285445,53.9969286 67.466484,53.9969286 Z" id="Combined-Shape"></path>
        </g>
    </g>
</svg>