<?xml version="1.0" encoding="UTF-8"?>
<svg width="100px" height="128px" viewBox="0 0 100 128" version="1.1" xmlns="http://www.w3.org/2000/svg" xmlns:xlink="http://www.w3.org/1999/xlink">
    <title>Octicons-flame</title>
    <g id="Page-1" stroke="none" stroke-width="1" fill="none" fill-rule="evenodd">
        <g id="Octicons-flame" fill="#171C22" fill-rule="nonzero">
            <path d="M42.1304762,0 C48.9226738,18.1887593 45.390731,28.097561 37.7834697,35.9703075 C29.4969885,44.6574761 16.591813,51.1728526 7.49026821,63.9321315 C-4.59984358,80.8992577 -6.63750287,118.226935 36.9684059,128 C18.6294723,118.362672 14.6899977,90.4008484 34.5232148,72.8907741 C29.3611446,89.8579003 38.8702213,100.716861 50.6886452,96.7804878 C62.2353811,92.8441145 69.8426425,101.124072 69.5709546,110.625663 C69.4351106,117.141039 66.8540755,122.706257 60.1977219,125.828208 C88.589108,120.805938 100,97.3234358 100,79.4061506 C100,55.7879109 78.9441873,52.5302227 89.5400156,32.7126193 C76.906528,33.7985154 72.5595216,42.078473 73.7821171,55.6521739 C74.5971808,64.6108165 65.2239481,70.718982 58.2959065,66.6468717 C52.7263045,63.2534464 52.8621484,56.73807 57.7525307,51.8515376 C68.2125151,41.5355249 72.2878336,17.7815483 42.1304762,0 Z" id="Path"></path>
        </g>
    </g>
</svg>