<?xml version="1.0" encoding="UTF-8"?>
<svg width="100px" height="97px" viewBox="0 0 100 97" version="1.1" xmlns="http://www.w3.org/2000/svg" xmlns:xlink="http://www.w3.org/1999/xlink">
    <title>whale</title>
    <g id="Page-1" stroke="none" stroke-width="1" fill="none" fill-rule="evenodd">
        <g id="whale" fill="#171C22" fill-rule="nonzero">
            <path d="M91.3949057,0 C77.5656906,9.83363276 51.2172606,8.65385 46.1771369,26.4619872 C34.5243389,13.9862909 16.3607106,10.1087466 0.0880814754,5.92676274 C1.47113003,35.2742808 15.2016769,37.0325622 40.8342332,46.9716834 C45.8544538,52.4119335 47.1409515,57.5057595 44.9109657,64.420527 C54.7360732,65.4965091 60.0508162,67.6839175 67.5144509,70.2734478 C67.364543,55.1527342 62.1914502,47.2921573 51.5246988,33.3451082 C53.8660569,34.2381733 61.0482966,41.1554726 63.5042029,45.7098307 C86.67196,36.7599801 94.7646573,22.0648069 91.3949057,0 Z M33.6282792,67.2558454 C20.7357767,67.2052109 9.48336827,71.3677849 0.0840585234,82.914761 C35.4595693,72.6106498 61.9111139,80.1277563 100,84.5804235 C74.8171674,76.4046471 52.4711512,67.3303202 33.6282792,67.2558454 Z M54.3873468,83.6791303 C33.3663639,83.7329294 10.698088,87.6324152 0,97 C35.5717885,91.385905 75.5470156,91.0065686 99.6845159,95.9520778 C99.9178471,88.4967875 78.210845,83.6183689 54.3873468,83.6791303 L54.3873468,83.6791303 Z" id="Shape"></path>
        </g>
    </g>
</svg>